<?xml version="1.0" encoding="utf-8"?>
<!-- Generator: Adobe Illustrator 19.2.0, SVG Export Plug-In . SVG Version: 6.00 Build 0)  -->
<svg version="1.1" id="Layer_2" xmlns="http://www.w3.org/2000/svg" xmlns:xlink="http://www.w3.org/1999/xlink" x="0px" y="0px"
	 width="300px" height="416px" viewBox="-329 73 300 416" style="enable-background:new -329 73 300 416;" xml:space="preserve">
<style type="text/css">
	.st0{fill:#888888;}
	.st1{fill:#FE7A15;}
	.st2{fill:#E0E0E0;}
	.st3{fill:#1E7ECB;}
	.st4{fill:#B7B7B7;}
	.st5{fill:#33A030;}
	.st6{fill:#B1B1B1;}
	.st7{fill:#83B869;}
	.st8{fill:#FFFFFF;}
	.st9{fill:#231F20;}
	.st10{fill:#3A589A;}
	.st11{fill:#DD4B39;}
	.st12{fill:#28AAE1;}
	.st13{fill:#349E45;}
	.st14{fill:#A1A1A1;}
	.st15{fill:#12110B;}
	.st16{fill:#2F96E8;}
	.st17{fill:#3667AF;}
	.st18{fill:#55A2D9;}
	.st19{fill:#A3D9F6;}
	.st20{fill:#24488D;}
	.st21{opacity:0.15;fill:#FFFFFF;enable-background:new    ;}
	.st22{fill:#3E6D8E;}
	.st23{fill:#0077CC;}
	.st24{fill:#005999;}
</style>
<polygon class="st0" points="-308.9,177.2 -308.9,169.2 -303.2,173.2 "/>
<polygon class="st0" points="-329,170 -321,170 -325,175.7 "/>
<polygon class="st0" points="-174.5,182.2 -179,175.9 -174.4,169.8 -169.9,175.9 "/>
<polygon class="st1" points="-154.5,182.2 -159,175.9 -154.4,169.8 -149.9,175.9 "/>
<polygon class="st2" points="-134.6,182.2 -139,175.9 -134.5,169.8 -130,175.9 "/>
<polygon class="st3" points="-94.5,182.2 -99,175.9 -94.4,169.8 -89.9,175.9 "/>
<g>
	<path class="st4" d="M-50.5,179.1c-2.7,0-4.9-2.2-4.9-4.9s2.2-4.9,4.9-4.9s4.9,2.2,4.9,4.9S-47.8,179.1-50.5,179.1z M-50.5,170.3
		c-2.2,0-3.9,1.7-3.9,3.9c0,2.2,1.7,3.9,3.9,3.9s3.9-1.7,3.9-3.9C-46.6,172-48.3,170.3-50.5,170.3z"/>
	
		<rect x="-46.2" y="176.6" transform="matrix(0.6964 -0.7176 0.7176 0.6964 -142.3938 21.5015)" class="st4" width="0.9" height="5"/>
</g>
<g>
	<rect x="-98.1" y="144.7" class="st0" width="2" height="4.1"/>
	<rect x="-95.3" y="143.8" class="st0" width="2.2" height="5.1"/>
	<rect x="-92.3" y="142.2" class="st0" width="2.2" height="6.7"/>
	<rect x="-89.2" y="143.5" class="st0" width="2.2" height="5.4"/>
	<rect x="-86.1" y="141.2" class="st0" width="2.2" height="7.7"/>
	<polygon class="st0" points="-96.2,141.9 -95.3,141.9 -95.3,142.2 -93.2,142.2 -93.2,141.1 -92.1,140 -90.1,140 -90.1,139.8 
		-89.2,139.8 -89.2,140.9 -87.1,140.9 -87.1,139.9 -86,139.3 -86,139.4 -83.9,139.4 -83.9,137.2 -86,137.2 -86,138.6 -87.1,139.2 
		-87.1,138.7 -89.2,138.7 -89.2,139.2 -90.1,139.2 -90.1,137.8 -92.2,137.8 -92.2,139.3 -93.2,140.2 -93.2,140 -95.3,140 
		-95.3,141.3 -96.2,141.3 -96.2,140.6 -98.1,140.6 -98.1,142.6 -96.2,142.6 	"/>
</g>
<g>
	<rect x="-58" y="144.7" class="st5" width="2" height="4.1"/>
	<rect x="-55.3" y="143.8" class="st5" width="2.2" height="5.1"/>
	<rect x="-52.3" y="142.2" class="st5" width="2.2" height="6.7"/>
	<rect x="-49.2" y="143.5" class="st5" width="2.2" height="5.4"/>
	<rect x="-46" y="141.2" class="st5" width="2.2" height="7.7"/>
	<polygon class="st5" points="-56.2,141.9 -55.3,141.9 -55.3,142.2 -53.1,142.2 -53.1,141.1 -52.1,140 -50.1,140 -50.1,139.8 
		-49.2,139.8 -49.2,140.9 -47,140.9 -47,139.9 -46,139.3 -46,139.4 -43.9,139.4 -43.9,137.2 -46,137.2 -46,138.6 -47,139.2 
		-47,138.7 -49.2,138.7 -49.2,139.2 -50.1,139.2 -50.1,137.8 -52.2,137.8 -52.2,139.3 -53.1,140.2 -53.1,140 -55.3,140 -55.3,141.3 
		-56.2,141.3 -56.2,140.6 -58,140.6 -58,142.6 -56.2,142.6 	"/>
</g>
<path class="st2" d="M-126.5,138.1h-6.9l-4.9,5.9v4c0,0.5,0.4,1,1,1h14.8c0.5,0,1-0.4,1-1v-4L-126.5,138.1z M-125.5,144l-2,2h-5
	l-2-2h-2.7l4.1-4.9h6l4.1,4.9H-125.5L-125.5,144z"/>
<path class="st0" d="M-167.1,138.1h-6.9l-5,5.9v4c0,0.5,0.4,1,1,1h14.8c0.5,0,1-0.4,1-1v-4L-167.1,138.1z M-166.1,144l-2,2h-5l-2-2
	h-2.7l4.1-4.9h6l4.1,4.9H-166.1L-166.1,144z"/>
<g>
	<g>
		<path class="st6" d="M-175.8,240.2c-0.8,0.3-2,0.5-3.2,0.5c-6.8,0-12.4-5.5-12.4-12.3s5.6-12.2,12.4-12.2
			c6.8,0,12.4,5.5,12.4,12.2c0,0.7-0.4,2.8-1,4.6c-1,3-4.4,11.1-4.5,11.4l-0.7,1.6L-175.8,240.2z M-189.8,228.5
			c0,5.9,4.9,10.7,10.8,10.7c1.6,0,2.8-0.4,3.2-0.6l0.7-0.3l2.1,4.1c1.1-2.6,3.1-7.6,3.8-9.7c0.6-1.8,1-3.7,1-4.1
			c0-5.9-4.9-10.7-10.8-10.7C-185,217.8-189.8,222.6-189.8,228.5z"/>
	</g>
	<g>
		<path class="st6" d="M-178,222.8l4.5,11.4h-1.7l-1.2-3.4h-4.8l-1.3,3.4h-1.5l4.4-11.4H-178z M-176.9,229.5l-1.9-5.3l0,0l-1.9,5.3
			H-176.9z"/>
	</g>
</g>
<g>
	<g>
		<path class="st6" d="M-178,270.1c-0.8,0.3-2,0.5-3.2,0.5c-6.8,0-12.4-5.5-12.4-12.3c0-6.8,5.6-12.2,12.4-12.2
			c6.8,0,12.4,5.5,12.4,12.2c0,0.7-0.4,2.8-1,4.6c-1,3-4.4,11.1-4.5,11.4l-0.7,1.6L-178,270.1z M-192.1,258.3
			c0,5.9,4.9,10.7,10.8,10.7c1.6,0,2.8-0.4,3.2-0.6l0.7-0.3l2.1,4.1c1.1-2.6,3.1-7.6,3.8-9.7c0.6-1.8,1-3.7,1-4.1
			c0-5.9-4.9-10.7-10.8-10.7C-187.2,247.6-192.1,252.4-192.1,258.3z"/>
	</g>
	<g>
		<path class="st6" d="M-180.2,252.6l4.5,11.4h-1.7l-1.2-3.4h-4.8l-1.3,3.4h-1.5l4.4-11.4H-180.2z M-179.2,259.3l-1.9-5.3l0,0
			l-1.9,5.3H-179.2z"/>
	</g>
</g>
<g>
	<g>
		<path class="st7" d="M-201.7,251.4c-0.8,0.3-2,0.5-3.2,0.5c-6.8,0-12.4-5.5-12.4-12.3s5.6-12.2,12.4-12.2s12.4,5.5,12.4,12.2
			c0,0.7-0.4,2.8-1,4.6c-1,3-4.4,11.1-4.5,11.4l-0.7,1.6L-201.7,251.4z M-215.7,239.6c0,5.9,4.9,10.7,10.8,10.7
			c1.6,0,2.8-0.4,3.2-0.6l0.7-0.3l2.1,4.1c1.1-2.6,3.1-7.6,3.8-9.7c0.6-1.8,1-3.7,1-4.1c0-5.9-4.9-10.7-10.8-10.7
			C-210.9,229-215.7,233.8-215.7,239.6z"/>
	</g>
	<g>
		<path class="st7" d="M-203.9,234l4.5,11.4h-1.7l-1.2-3.4h-4.8l-1.3,3.4h-1.6l4.4-11.4H-203.9z M-202.8,240.7l-1.9-5.3l0,0
			l-1.9,5.3H-202.8z"/>
	</g>
</g>
<g>
	<g>
		<path class="st6" d="M-39.2,264.1c-0.6,0.2-1.6,0.4-2.5,0.4c-5.3,0-9.7-4.3-9.7-9.6c0-5.3,4.3-9.6,9.7-9.6c5.3,0,9.7,4.3,9.7,9.6
			c0,0.6-0.3,2.2-0.8,3.6c-0.8,2.3-3.4,8.7-3.5,8.9l-0.5,1.2L-39.2,264.1z M-50.2,254.9c0,4.6,3.8,8.4,8.5,8.4
			c1.3,0,2.2-0.3,2.5-0.5l0.5-0.3l1.6,3.2c0.8-2,2.4-6,3-7.6c0.5-1.4,0.8-2.9,0.8-3.2c0-4.6-3.8-8.4-8.5-8.4
			C-46.4,246.5-50.2,250.3-50.2,254.9z"/>
	</g>
	<g>
		<path class="st6" d="M-40.9,250.5l3.5,8.9h-1.3l-1-2.7h-3.8l-1,2.7h-1.2l3.5-8.9H-40.9z M-40.1,255.7l-1.5-4.2l0,0l-1.5,4.2H-40.1
			z"/>
	</g>
</g>
<g>
	<g>
		<path class="st6" d="M-49.9,279.1c-0.4,0.1-0.9,0.2-1.5,0.2c-3.1,0-5.6-2.5-5.6-5.6c0-3.1,2.5-5.6,5.6-5.6s5.6,2.5,5.6,5.6
			c0,0.3-0.2,1.2-0.5,2.1c-0.5,1.3-2,5-2.1,5.2l-0.3,0.7L-49.9,279.1z M-56.2,273.8c0,2.7,2.2,4.8,4.9,4.8c0.7,0,1.3-0.2,1.5-0.3
			l0.3-0.2l0.9,1.9c0.5-1.2,1.4-3.5,1.7-4.4c0.3-0.8,0.4-1.7,0.4-1.9c0-2.7-2.2-4.8-4.9-4.8C-54,268.9-56.2,271.1-56.2,273.8z"/>
	</g>
	<g>
		<path class="st6" d="M-50.9,271.2l2,5.2h-0.8l-0.6-1.6h-2.2l-0.6,1.6h-0.7l2-5.2H-50.9z M-50.4,274.3l-0.9-2.4l0,0l-0.9,2.4H-50.4
			z"/>
	</g>
</g>
<g>
	<g>
		<path class="st6" d="M-65.1,270.9c-0.5,0.2-1.2,0.3-2,0.3c-4.3,0-7.7-3.4-7.7-7.6c0-4.2,3.5-7.6,7.7-7.6c4.3,0,7.7,3.4,7.7,7.6
			c0,0.5-0.3,1.7-0.6,2.9c-0.6,1.8-2.7,6.9-2.8,7.1l-0.4,1L-65.1,270.9z M-73.8,263.5c0,3.7,3,6.7,6.7,6.7c1,0,1.8-0.2,2-0.4
			l0.4-0.2l1.3,2.6c0.7-1.6,1.9-4.7,2.4-6.1c0.4-1.2,0.6-2.3,0.6-2.6c0-3.7-3-6.7-6.7-6.7C-70.8,256.9-73.8,259.9-73.8,263.5z"/>
	</g>
	<g>
		<path class="st6" d="M-66.4,260l2.8,7.1h-1l-0.8-2.1h-3l-0.8,2.1h-1l2.8-7.1H-66.4z M-65.8,264.2l-1.2-3.3l0,0l-1.2,3.3H-65.8z"/>
	</g>
</g>
<g>
	<g>
		<path class="st6" d="M-84.2,258.3c-0.8,0.3-2,0.5-3.3,0.5c-6.9,0-12.5-5.6-12.5-12.4c0-6.8,5.6-12.4,12.5-12.4s12.5,5.6,12.5,12.4
			c0,0.7-0.4,2.8-1.1,4.7c-1,3-4.4,11.2-4.6,11.6l-0.7,1.6L-84.2,258.3z M-98.4,246.4c0,6,4.9,10.8,11,10.8c1.6,0,2.9-0.4,3.3-0.6
			l0.7-0.4l2.1,4.2c1.1-2.6,3.2-7.7,3.9-9.9c0.6-1.9,1-3.7,1-4.2c0-6-4.9-10.8-11-10.8C-93.5,235.6-98.4,240.4-98.4,246.4z"/>
	</g>
	<g>
		<path class="st6" d="M-86.4,240.7l4.5,11.6h-1.7l-1.3-3.5h-4.9l-1.3,3.5h-1.6l4.5-11.6H-86.4z M-85.4,247.4l-1.9-5.4l0,0l-2,5.4
			H-85.4z"/>
	</g>
</g>
<g>
	<g>
		<path class="st7" d="M-60.9,249.1c-1.4,0.4-3.3,0.8-5.3,0.8c-11.3,0-20.5-9.1-20.5-20.3s9.2-20.3,20.5-20.3
			c11.3,0,20.5,9.1,20.5,20.3c0,1.2-0.7,4.6-1.7,7.6c-1.6,4.9-7.2,18.3-7.5,18.9l-1.1,2.6L-60.9,249.1z"/>
	</g>
	<g>
		<path class="st8" d="M-64.5,220.3l7.4,18.9h-2.8l-2.1-5.7h-8l-2.1,5.7h-2.6l7.3-18.9H-64.5z M-62.8,231.4l-3.1-8.8H-66l-3.2,8.8
			H-62.8z"/>
	</g>
</g>
<g>
	<g>
		<g>
			<path class="st6" d="M-315.2,273.3l-1.3-3.1c-0.3-0.7-6.9-16.6-8.9-22.4c-1.2-3.6-2-7.6-2-9c0-6.4,2.5-12.4,7.1-17
				c4.6-4.5,10.7-7,17.2-7c13.4,0,24.3,10.8,24.3,24c0,6.4-2.5,12.5-7.1,17c-4.6,4.5-10.7,7-17.2,7c-2.4,0-4.7-0.4-6.3-0.9
				L-315.2,273.3z M-303.2,217.8c-5.7,0-11,2.2-15,6.2s-6.2,9.2-6.2,14.8c0,0.8,0.7,4.4,1.9,8.1c1.4,4.2,5.4,14.1,7.5,19.1l4.1-8.1
				l1.4,0.7c0.8,0.4,3.2,1.2,6.4,1.2c5.7,0,11-2.2,15-6.2s6.2-9.2,6.2-14.8C-281.9,227.2-291.5,217.8-303.2,217.8z"/>
		</g>
	</g>
	<g>
		<path class="st6" d="M-299.3,243.9c0.7-0.7,1.2-1.5,1.5-2.5c0.3-1,0.5-2,0.5-3.1c0-0.9-0.1-1.8-0.3-2.6c-0.2-0.9-0.6-1.6-1.1-2.3
			s-1.1-1.2-1.9-1.7c-0.8-0.4-1.7-0.6-2.8-0.6s-2,0.2-2.8,0.6c-0.8,0.4-1.4,1-1.9,1.7s-0.9,1.5-1.1,2.3c-0.2,0.9-0.3,1.7-0.3,2.6
			c0,0.9,0.1,1.8,0.3,2.6c0.2,0.9,0.6,1.6,1.1,2.3s1.1,1.2,1.9,1.7c0.8,0.4,1.7,0.6,2.8,0.6c0.8,0,1.6-0.2,2.4-0.5l-1.9-1.6l1.2-1.4
			L-299.3,243.9L-299.3,243.9z M-299.1,246.4c-1.2,0.7-2.6,1-4.2,1c-1.4,0-2.6-0.2-3.7-0.7s-1.9-1.2-2.6-2c-0.7-0.9-1.2-1.8-1.6-2.9
			c-0.4-1.1-0.5-2.3-0.5-3.5s0.2-2.4,0.5-3.5c0.4-1.1,0.9-2.1,1.6-2.9c0.7-0.9,1.6-1.5,2.6-2s2.3-0.8,3.7-0.8c1.4,0,2.6,0.3,3.7,0.8
			s1.9,1.2,2.6,2c0.7,0.9,1.2,1.8,1.6,2.9c0.4,1.1,0.5,2.3,0.5,3.5c0,1.3-0.2,2.6-0.7,3.8c-0.4,1.2-1.1,2.3-2,3.2l2.3,1.8l-1.2,1.5
			L-299.1,246.4L-299.1,246.4z"/>
	</g>
</g>
<g>
	<path class="st9" d="M-129.3,106.3c0.1,0.3,0.3,0.5,0.5,0.6c0.2,0.2,0.5,0.3,0.8,0.4c0.3,0.1,0.6,0.1,0.9,0.1c0.2,0,0.4,0,0.7-0.1
		c0.2,0,0.5-0.1,0.7-0.2s0.4-0.2,0.5-0.4s0.2-0.4,0.2-0.7c0-0.3-0.1-0.5-0.3-0.7s-0.4-0.3-0.7-0.5c-0.3-0.1-0.7-0.2-1-0.3
		c-0.4-0.1-0.8-0.2-1.2-0.3s-0.8-0.2-1.2-0.4c-0.4-0.1-0.7-0.3-1-0.6c-0.3-0.2-0.6-0.5-0.7-0.9c-0.2-0.4-0.3-0.8-0.3-1.3
		c0-0.6,0.1-1.1,0.4-1.5c0.2-0.4,0.6-0.8,0.9-1c0.4-0.3,0.8-0.5,1.3-0.6c0.5-0.1,1-0.2,1.5-0.2c0.6,0,1.1,0.1,1.7,0.2
		c0.5,0.1,1,0.3,1.4,0.6c0.4,0.3,0.7,0.7,1,1.1c0.2,0.4,0.4,1,0.4,1.6h-2.3c0-0.3-0.1-0.6-0.2-0.8c-0.1-0.2-0.3-0.4-0.5-0.5
		s-0.4-0.2-0.7-0.3s-0.5-0.1-0.8-0.1c-0.2,0-0.4,0-0.6,0.1c-0.2,0-0.4,0.1-0.5,0.2c-0.2,0.1-0.3,0.2-0.4,0.4
		c-0.1,0.2-0.2,0.3-0.2,0.6c0,0.2,0,0.4,0.1,0.5c0.1,0.1,0.2,0.3,0.5,0.4c0.2,0.1,0.6,0.2,1,0.3s1,0.3,1.7,0.4
		c0.2,0,0.5,0.1,0.9,0.2s0.7,0.3,1.1,0.5c0.4,0.2,0.7,0.6,0.9,0.9c0.3,0.4,0.4,0.9,0.4,1.5c0,0.5-0.1,1-0.3,1.4s-0.5,0.8-0.9,1.1
		s-0.9,0.6-1.4,0.7c-0.6,0.2-1.2,0.3-2,0.3c-0.6,0-1.2-0.1-1.8-0.2c-0.6-0.1-1.1-0.4-1.5-0.7s-0.8-0.7-1-1.2s-0.4-1.1-0.4-1.8h2.3
		C-129.5,105.7-129.5,106-129.3,106.3z"/>
	<path class="st9" d="M-119.4,101.1v1l0,0c0.3-0.4,0.6-0.7,1-0.9c0.4-0.2,0.9-0.3,1.4-0.3c0.6,0,1.2,0.1,1.6,0.4
		c0.5,0.2,0.8,0.5,1.1,0.9c0.3,0.4,0.5,0.8,0.7,1.4c0.1,0.5,0.2,1.1,0.2,1.6s-0.1,1-0.2,1.5s-0.4,0.9-0.7,1.3
		c-0.3,0.4-0.7,0.7-1.1,0.9c-0.4,0.2-0.9,0.3-1.5,0.3c-0.5,0-0.9-0.1-1.4-0.3c-0.4-0.2-0.8-0.5-1-0.9l0,0v3.8h-2.2v-10.7H-119.4z
		 M-116.5,107.4c0.2-0.1,0.4-0.3,0.6-0.6c0.1-0.2,0.3-0.5,0.3-0.8c0-0.3,0.1-0.6,0.1-0.9s0-0.6-0.1-0.9c-0.1-0.3-0.2-0.6-0.3-0.8
		c-0.2-0.2-0.4-0.4-0.6-0.6c-0.2-0.1-0.5-0.2-0.9-0.2s-0.7,0.1-0.9,0.2s-0.4,0.3-0.6,0.6c-0.1,0.2-0.3,0.5-0.3,0.8
		c0,0.3-0.1,0.6-0.1,1c0,0.3,0,0.6,0.1,0.9s0.2,0.6,0.3,0.8c0.1,0.2,0.3,0.4,0.6,0.6c0.2,0.1,0.5,0.2,0.9,0.2
		C-117.1,107.6-116.8,107.5-116.5,107.4z"/>
	<path class="st9" d="M-112,103.3c0.2-0.5,0.5-1,0.8-1.3c0.4-0.4,0.8-0.6,1.3-0.8c0.5-0.2,1.1-0.3,1.7-0.3s1.2,0.1,1.7,0.3
		c0.5,0.2,0.9,0.5,1.3,0.8c0.4,0.4,0.6,0.8,0.8,1.3s0.3,1.1,0.3,1.7s-0.1,1.2-0.3,1.7s-0.5,1-0.8,1.3c-0.4,0.4-0.8,0.6-1.3,0.8
		c-0.5,0.2-1.1,0.3-1.7,0.3s-1.2-0.1-1.7-0.3c-0.5-0.2-0.9-0.5-1.3-0.8c-0.4-0.4-0.6-0.8-0.8-1.3s-0.3-1.1-0.3-1.7
		C-112.3,104.4-112.2,103.8-112,103.3z M-110,106c0.1,0.3,0.2,0.6,0.3,0.8c0.1,0.2,0.3,0.4,0.6,0.6c0.2,0.1,0.6,0.2,0.9,0.2
		c0.4,0,0.7-0.1,0.9-0.2c0.3-0.1,0.5-0.3,0.6-0.6c0.1-0.3,0.3-0.5,0.3-0.8c0.1-0.3,0.1-0.6,0.1-0.9c0-0.3,0-0.6-0.1-0.9
		c-0.1-0.3-0.2-0.6-0.3-0.8c-0.1-0.2-0.3-0.4-0.6-0.6c-0.3-0.2-0.6-0.2-0.9-0.2c-0.4,0-0.7,0.1-0.9,0.2c-0.2,0.1-0.4,0.3-0.6,0.6
		c-0.1,0.2-0.3,0.5-0.3,0.8c0,0.3-0.1,0.6-0.1,0.9C-110.1,105.4-110.1,105.7-110,106z"/>
	<path class="st9" d="M-100.6,101.1v1.1l0,0c0.3-0.5,0.6-0.8,1.1-1c0.5-0.2,0.9-0.3,1.4-0.3c0.6,0,1.1,0.1,1.4,0.2
		c0.3,0.1,0.7,0.4,0.9,0.7s0.4,0.6,0.5,1s0.1,0.9,0.1,1.3v4.9h-2.2v-4.5c0-0.7-0.1-1.1-0.3-1.5s-0.6-0.5-1.1-0.5
		c-0.6,0-1,0.2-1.3,0.5c-0.3,0.4-0.4,0.9-0.4,1.7v4.3h-2.2v-7.9H-100.6z"/>
	<path class="st9" d="M-91.7,107c0.1,0.2,0.2,0.3,0.4,0.4s0.3,0.2,0.5,0.2c0.2,0.1,0.4,0.1,0.6,0.1c0.2,0,0.3,0,0.5-0.1
		c0.2,0,0.3-0.1,0.5-0.2c0.1-0.1,0.3-0.2,0.3-0.3c0.1-0.1,0.1-0.3,0.1-0.5c0-0.3-0.2-0.6-0.7-0.7c-0.4-0.2-1-0.3-1.8-0.5
		c-0.3-0.1-0.6-0.2-0.9-0.3c-0.3-0.1-0.6-0.2-0.8-0.4c-0.2-0.2-0.4-0.4-0.6-0.6c-0.2-0.2-0.2-0.5-0.2-0.9c0-0.5,0.1-0.9,0.3-1.3
		c0.2-0.3,0.5-0.6,0.8-0.8c0.3-0.2,0.7-0.3,1.1-0.4c0.4-0.1,0.8-0.1,1.3-0.1c0.4,0,0.8,0,1.3,0.1c0.4,0.1,0.8,0.2,1.1,0.4
		s0.6,0.5,0.8,0.8c0.2,0.3,0.3,0.7,0.4,1.2h-2.1c0-0.4-0.2-0.7-0.5-0.9c-0.3-0.1-0.6-0.2-1-0.2c-0.1,0-0.3,0-0.4,0
		c-0.1,0-0.3,0-0.4,0.1c-0.1,0.1-0.2,0.1-0.3,0.2c-0.1,0.1-0.1,0.2-0.1,0.4c0,0.2,0.1,0.4,0.2,0.5c0.1,0.1,0.3,0.2,0.6,0.3
		c0.3,0.1,0.5,0.1,0.8,0.2s0.6,0.1,0.9,0.2c0.3,0.1,0.6,0.2,0.9,0.3c0.3,0.1,0.6,0.2,0.8,0.4s0.4,0.4,0.6,0.6s0.2,0.6,0.2,0.9
		c0,0.5-0.1,1-0.3,1.3c-0.2,0.4-0.5,0.6-0.8,0.9c-0.3,0.2-0.7,0.4-1.2,0.5c-0.4,0.1-0.9,0.1-1.3,0.1c-0.5,0-0.9,0-1.4-0.1
		c-0.4-0.1-0.8-0.2-1.2-0.5c-0.3-0.2-0.6-0.5-0.8-0.9c-0.2-0.4-0.3-0.8-0.4-1.3h2.1C-91.9,106.7-91.8,106.9-91.7,107z"/>
	<path class="st9" d="M-85.3,103.3c0.2-0.5,0.5-1,0.8-1.3c0.4-0.4,0.8-0.6,1.3-0.8c0.5-0.2,1.1-0.3,1.7-0.3s1.2,0.1,1.7,0.3
		c0.5,0.2,0.9,0.5,1.3,0.8c0.4,0.4,0.6,0.8,0.8,1.3s0.3,1.1,0.3,1.7s-0.1,1.2-0.3,1.7s-0.5,1-0.8,1.3c-0.4,0.4-0.8,0.6-1.3,0.8
		c-0.5,0.2-1.1,0.3-1.7,0.3s-1.2-0.1-1.7-0.3c-0.5-0.2-0.9-0.5-1.3-0.8c-0.4-0.4-0.6-0.8-0.8-1.3s-0.3-1.1-0.3-1.7
		C-85.6,104.4-85.5,103.8-85.3,103.3z M-83.3,106c0.1,0.3,0.2,0.6,0.3,0.8c0.1,0.2,0.3,0.4,0.6,0.6c0.2,0.1,0.6,0.2,0.9,0.2
		c0.4,0,0.7-0.1,0.9-0.2c0.3-0.1,0.5-0.3,0.6-0.6c0.1-0.3,0.3-0.5,0.3-0.8c0.1-0.3,0.1-0.6,0.1-0.9c0-0.3,0-0.6-0.1-0.9
		c-0.1-0.3-0.2-0.6-0.3-0.8c-0.1-0.2-0.3-0.4-0.6-0.6c-0.3-0.2-0.6-0.2-0.9-0.2c-0.4,0-0.7,0.1-0.9,0.2c-0.2,0.1-0.4,0.3-0.6,0.6
		c-0.1,0.2-0.3,0.5-0.3,0.8c0,0.3-0.1,0.6-0.1,0.9C-83.4,105.4-83.4,105.7-83.3,106z"/>
	<path class="st9" d="M-73.9,101.1v1.5l0,0c0.1-0.2,0.2-0.5,0.4-0.7c0.2-0.2,0.4-0.4,0.6-0.5s0.5-0.3,0.7-0.3s0.5-0.1,0.8-0.1
		c0.1,0,0.3,0,0.5,0.1v2c-0.1,0-0.2,0-0.4-0.1c-0.1,0-0.3,0-0.4,0c-0.4,0-0.7,0.1-1,0.2c-0.3,0.1-0.5,0.3-0.7,0.5
		c-0.2,0.2-0.3,0.5-0.4,0.8c-0.1,0.3-0.1,0.6-0.1,1v3.5h-2.2v-7.9H-73.9z"/>
</g>
<g>
	<rect x="-329" y="73" class="st10" width="16" height="16"/>
	<path class="st8" d="M-318.7,88h-2.1v-5.5h-1.4v-1.9h1.4v-1.1c0-1.6,0.4-2.5,2.3-2.5h1.5v1.9h-1c-0.7,0-0.7,0.3-0.7,0.8v1h1.7
		l-0.2,1.9h-1.5V88L-318.7,88z"/>
</g>
<g>
	<rect x="-311" y="73" class="st11" width="16" height="16"/>
	<path class="st8" d="M-302.6,76.7c0,0-2,0-2.7,0c-1.2,0-2.3,0.9-2.3,2c0,1.1,0.8,1.9,2,1.9c0.1,0,0.2,0,0.2,0
		c-0.1,0.2-0.1,0.3-0.1,0.5c0,0.3,0.2,0.5,0.4,0.7c-0.2,0-0.3,0-0.5,0c-1.5,0-2.6,0.9-2.6,1.9s1.3,1.6,2.7,1.6c1.7,0,2.6-1,2.6-1.9
		c0-0.8-0.2-1.2-0.9-1.7c-0.2-0.2-0.7-0.6-0.7-0.8c0-0.3,0.1-0.4,0.5-0.8c0.4-0.3,0.8-0.8,0.8-1.4c0-0.7-0.3-1.3-0.9-1.5h0.8
		L-302.6,76.7L-302.6,76.7z M-303.5,83.2c0,0.1,0,0.2,0,0.3c0,0.8-0.5,1.4-1.9,1.4c-1,0-1.8-0.6-1.8-1.4s0.9-1.4,1.9-1.4
		c0.2,0,0.5,0,0.7,0.1C-304,82.6-303.6,82.8-303.5,83.2L-303.5,83.2z M-305.1,80.3c-0.7,0-1.3-0.8-1.5-1.7c-0.2-0.9,0.3-1.6,1-1.6
		c0.7,0,1.3,0.7,1.5,1.7C-303.9,79.7-304.4,80.3-305.1,80.3z M-299.8,78.6v-1.9h-0.6v1.9h-1.9v0.6h1.9v1.9h0.6v-1.9h1.9v-0.6H-299.8
		z"/>
</g>
<g>
	<rect x="-293" y="73" class="st12" width="16" height="16"/>
	<path class="st8" d="M-281.1,78.5c-0.3,0.1-0.6,0.2-0.9,0.3c0.3-0.2,0.6-0.5,0.7-0.9c-0.3,0.2-0.7,0.3-1,0.4
		c-0.3-0.3-0.7-0.5-1.2-0.5c-0.9,0-1.6,0.7-1.6,1.6c0,0.1,0,0.3,0,0.4c-1.3-0.1-2.5-0.7-3.3-1.7c-0.1,0.2-0.2,0.5-0.2,0.8
		c0,0.6,0.3,1.1,0.7,1.4c-0.3,0-0.5-0.1-0.7-0.2l0,0c0,0.8,0.6,1.4,1.3,1.6c-0.1,0-0.3,0.1-0.4,0.1c-0.1,0-0.2,0-0.3,0
		c0.2,0.6,0.8,1.1,1.5,1.1c-0.6,0.4-1.3,0.7-2,0.7c-0.1,0-0.3,0-0.4,0c0.7,0.5,1.6,0.7,2.5,0.7c3,0,4.6-2.5,4.6-4.6
		c0-0.1,0-0.1,0-0.2C-281.6,79.2-281.3,78.9-281.1,78.5L-281.1,78.5z"/>
</g>
<g>
	<path class="st13" d="M-119.9,85.8c0-0.1,0.1-0.2,0.1-0.3c0.8-3.7,1.8-7.2,2.8-10.7c0.1-0.3,0.2-0.3,0.4-0.3c1.8,0,3.7,0,5.5,0
		c0.2,0,0.4,0,0.4,0.3c0,1.1,0.1,2.3,0.2,3.4c0.1,1.7,0.2,3.5,0.3,5.2c0,1,0.1,1.9,0.1,2.9c0.1,1.8,0.2,3.6,0.3,5.4
		c0,0.6,0,0.6-0.5,0.6c-1.3,0-2.5,0-3.8,0c-0.3,0-0.3-0.1-0.3-0.4c0-1.6-0.1-3.1-0.1-4.7c0-1.6-0.1-3.2-0.1-4.9c0-1,0-2.1,0-3.1
		c0-0.2,0-0.4,0-0.6h-0.1c-0.1,0.2-0.1,0.4-0.2,0.6c-0.9,3.2-1.7,6.3-2.6,9.5c-0.3,0.9-0.5,1.9-0.8,2.8c-0.1,0.2-0.2,0.3-0.4,0.3
		c-1,0-2.1,0-3.1,0c-0.2,0-0.3-0.1-0.4-0.3c-0.7-2.9-1.4-5.8-2-8.7c-0.3-1.3-0.5-2.6-0.7-3.9c0-0.1,0-0.1-0.1-0.3
		c0,0.1-0.1,0.2-0.1,0.3c0,1.1-0.1,2.2-0.1,3.2c-0.1,1.9-0.2,3.7-0.2,5.6c-0.1,1.4-0.1,2.9-0.2,4.3c0,0.1,0,0.2-0.2,0.2
		c-1.3,0-2.7,0-4,0h-0.1c0-0.2,0-0.5,0-0.7c0.1-1.3,0.2-2.6,0.2-3.8c0.1-1.8,0.2-3.5,0.3-5.3c0.1-1.2,0.1-2.3,0.2-3.5
		c0.1-1.4,0.2-2.7,0.2-4.1c0-0.3,0.1-0.4,0.4-0.4c1.9,0,3.8,0,5.7,0c0.3,0,0.4,0.1,0.4,0.3c0.6,2.7,1.3,5.4,1.9,8.2
		c0.2,0.9,0.3,1.7,0.5,2.6C-120,85.6-120,85.7-119.9,85.8C-119.9,85.7-119.9,85.7-119.9,85.8z"/>
	<path class="st13" d="M-79.3,80.6c0.1-0.1,0.1-0.2,0.2-0.3c1.6-1.7,4.6-1.9,6.2-0.3c0.8,0.8,1.2,1.8,1.4,2.9
		c0.1,0.6,0.1,1.1,0.1,1.7c0,2.4,0,4.8,0,7.2c0,0.4,0,0.4-0.4,0.4c-1.3,0-2.6,0-3.9,0c-0.2,0-0.3-0.1-0.3-0.3c0-2.2,0-4.5,0-6.7
		c0-0.5-0.1-1-0.2-1.5c-0.2-0.8-0.9-1.1-1.8-1c-0.7,0.1-1.3,0.7-1.4,1.4c0,0.2-0.1,0.5-0.1,0.7c0,2.3,0,4.7,0,7
		c0,0.3-0.1,0.4-0.3,0.4c-1.3,0-2.7,0-4,0c-0.3,0-0.4-0.1-0.4-0.4c0-4.7,0-9.4,0-14.1c0-1.3,0-2.6,0-3.9c0-0.2,0.1-0.3,0.3-0.3
		c1.4,0,2.7,0,4.1,0c0.2,0,0.3,0.1,0.3,0.3c0,2.1,0,4.3,0,6.4c0,0.1,0,0.2,0,0.3C-79.4,80.6-79.3,80.6-79.3,80.6z"/>
	<path class="st9" d="M-46.5,92.2c-1.4,0-2.8,0-4.2,0c-0.1-0.4-0.2-0.7-0.3-1.2c-0.1,0.1-0.2,0.2-0.2,0.2c-1.6,1.6-4.7,1.7-6.4,0.2
		c-1.9-1.7-1.8-5.2,0.6-6.7c1-0.7,2.1-1,3.3-1.2c0.8-0.1,1.5-0.2,2.3-0.2c0.1-0.4-0.1-0.7-0.5-0.9c-0.5-0.3-1.1-0.3-1.7-0.3
		c-1.3,0-2.2,0.3-3.6,1c0-0.1-0.1-0.2-0.1-0.2c-0.2-0.9-0.5-1.7-0.7-2.6c0-0.2,0-0.2,0.1-0.3c2.5-1.1,5-1.4,7.6-0.8
		c2.1,0.5,3.2,2,3.5,4.1c0.1,0.5,0.1,1.1,0.1,1.6c0,1.9,0,3.8,0,5.7C-46.6,91.1-46.5,91.7-46.5,92.2z M-51.3,86.3
		c-0.3,0-0.7,0-1,0.1c-0.5,0.1-1.1,0.2-1.5,0.5c-0.7,0.5-0.7,1.6,0,2.1c0.9,0.6,2.3,0,2.5-1C-51.3,87.4-51.3,86.9-51.3,86.3z"/>
	<path class="st9" d="M-34,81.4c0.4-0.1,0.8-0.2,1.2-0.3h0.1c0.3,0,0.5-0.1,0.7,0.2c0.1,0.3-0.1,0.5-0.2,0.6
		c-1.1,1.2-2.2,2.4-3.4,3.5c-0.2,0.2-0.4,0.4-0.6,0.6c0.8,1.2,1.9,2,3.3,2.3c0.3,0.1,0.6,0.1,0.9,0.2c0.5,0.1,0.9,0.4,1.2,0.8
		c0.4,0.6,0.6,1.2,0.4,2c-0.4,1.5-2.4,2.3-3.7,1.5c-0.4-0.3-0.6-0.7-0.7-1.1c-0.2-0.7-0.4-1.4-1-1.9c-0.6-0.6-1.3-1.3-2-1.8
		c-0.8-0.6-1.1-0.4-1.5,0.4c-0.3,0.7-0.3,1.4-0.4,2.1c-0.1,0.5-0.2,1-0.4,1.4c-0.3,0.8-1,1.3-1.9,1.4c-1.1,0.1-2-0.3-2.6-1.2
		c-0.3-0.4-0.3-0.9-0.2-1.4c0.1-0.3,0.2-0.6,0.3-0.9c-0.2,0-0.4,0-0.6,0c-0.5,0-0.7-0.4-0.4-0.8c0.4-0.6,0.9-1.1,1.4-1.7
		c0.8-0.8,1.7-1.6,2.5-2.4c0.2-0.1,0.2-0.2,0.1-0.4c-0.4-0.9-0.9-1.6-1.6-2.3c-0.5-0.5-1.1-0.6-1.7-0.8c-0.3-0.1-0.6-0.2-0.9-0.3
		c-1.2-0.5-1.6-1.7-1-2.8c0.2-0.3,0.4-0.6,0.7-0.9c0.4-0.4,1-0.5,1.6-0.4c0.8,0.2,1.4,0.7,1.7,1.5c0.2,0.4,0.3,0.8,0.5,1.1
		c0.5,1.2,1.5,1.9,2.7,2.3c0.9,0.3,1.6-0.2,1.9-1c0.1-0.4,0.2-0.8,0.2-1.1c0.1-0.7,0.4-1.3,0.9-1.7c0.6-0.5,1.4-0.6,2.1-0.2
		c0.5,0.3,0.9,0.7,1.1,1.1c0.3,0.6,0.3,1.2-0.1,1.7C-33.7,81-33.9,81.2-34,81.4z M-34.4,88.2c-0.1,0-0.2,0.1-0.2,0.1
		c0,0.1,0,0.2,0.1,0.3s0.3,0.3,0.5,0.4c0.8,0.5,1.6,0.9,2.5,1.3c0.1,0,0.2,0,0.2,0c0-0.1,0.1-0.2,0-0.3c-0.1-0.2-0.2-0.3-0.3-0.4
		c-0.7-0.6-1.5-1.1-2.4-1.4C-34.2,88.3-34.3,88.2-34.4,88.2z M-32.6,81.4L-32.6,81.4c-0.1,0-0.2,0-0.2,0c-1.9,0.7-3.9,1.5-5.8,2.2
		c-0.1,0.1-0.3,0.1-0.4,0.2l-0.1,0.2c0.1,0.2,0.5,0.2,0.6,0c0.1-0.3,0.4-0.4,0.7-0.6c1.6-0.6,3.3-1.3,4.9-1.9
		C-32.8,81.5-32.7,81.5-32.6,81.4z M-43.7,89.6C-43.7,89.6-43.8,89.6-43.7,89.6c-0.2,0-0.3,0.1-0.3,0.2c-0.5,0.5-0.6,1.6-0.3,2.2
		c0.1,0.2,0.3,0.4,0.6,0.4c0.3,0.1,0.4-0.1,0.3-0.3c0-0.1-0.1-0.2-0.1-0.3c-0.2-0.3-0.3-0.6-0.4-0.9c-0.1-0.3-0.1-0.6,0.1-0.9
		C-43.8,89.8-43.8,89.7-43.7,89.6z M-44.8,77.5c-0.1,0.1-0.3,0.2-0.4,0.3c0,0.1,0,0.3,0.1,0.4c0,0.1,0.1,0.2,0.2,0.2
		c0.1,0.1,0.3,0.1,0.4,0c0.2-0.1,0.3-0.3,0.4-0.5c0,0,0-0.1-0.1-0.2C-44.3,77.7-44.5,77.6-44.8,77.5z M-35.1,79.2
		c0.3,0,0.6-0.2,0.6-0.5c0-0.2-0.2-0.4-0.5-0.4c-0.4,0-0.6,0.2-0.6,0.5C-35.5,79.1-35.4,79.2-35.1,79.2z M-44.7,88.5
		c1-1,2-1.9,3-2.8l-0.1-0.1C-42.8,86.5-43.8,87.3-44.7,88.5z"/>
	<path class="st9" d="M-64.7,74.4c1.6,0,3.2,0,4.8,0c0,0.1,0,0.2,0,0.3c0,3.7,0,7.3,0,11c0,1.1-0.2,2.2-0.6,3.3
		c-0.6,1.5-1.7,2.6-3.3,3.1c-2,0.6-4.1,0.5-6.1,0c0.2-1.3,0.4-2.5,0.5-3.8c0.5,0.1,0.9,0.2,1.4,0.2c0.4,0,0.8,0.1,1.1,0
		c1.2-0.1,1.9-0.8,2-2c0.1-0.4,0.1-0.7,0.1-1.1c0-3.5,0-7.1,0-10.6C-64.7,74.7-64.7,74.6-64.7,74.4z"/>
	<path class="st13" d="M-89.1,75.6c0,0.4,0,0.7,0,1.1c0,0.7,0,1.5,0,2.2c0,0.3,0.1,0.4,0.4,0.4c0.7,0,1.3,0,2,0
		c0.2,0,0.4,0.1,0.3,0.3c0,0.9,0,1.9,0,2.8c0,0.2-0.1,0.3-0.3,0.3c-0.7,0-1.4,0-2.1,0c-0.2,0-0.3,0-0.3,0.3c0,1.3,0,2.6,0,3.9
		c0,0.2,0,0.4,0.1,0.6c0.2,0.8,0.7,1.2,1.6,1.1c0.3,0,0.6,0,1-0.1c0,0.3,0,0.5,0,0.8c0,0.8,0,1.6,0,2.5c0,0.1,0,0.3-0.2,0.3
		c-1.4,0.3-2.8,0.5-4.2,0.1c-1.5-0.4-2.4-1.5-2.6-3c-0.1-0.6-0.2-1.2-0.2-1.8c0-1.5,0-3,0-4.4c0-0.3-0.1-0.3-0.3-0.3
		c-0.3,0-0.7,0-1,0c-0.2,0-0.2-0.1-0.2-0.2c0-1,0-2,0-2.9c0-0.2,0.1-0.3,0.3-0.2c0.4,0,0.7,0,1.1,0c0.2,0,0.3-0.1,0.3-0.3
		c0-0.7,0-1.3,0-2c0-0.2,0.1-0.2,0.2-0.3c1.4-0.4,2.8-0.8,4.2-1.1C-89.2,75.6-89.2,75.6-89.1,75.6z"/>
	<path class="st8" d="M-51.3,86.3c0,0.6,0.1,1.2,0,1.7c-0.2,1-1.6,1.6-2.5,1c-0.7-0.4-0.6-1.6,0-2.1c0.4-0.3,1-0.5,1.5-0.5
		C-52,86.3-51.7,86.3-51.3,86.3z"/>
	<path class="st13" d="M-96.3,92c-0.1-0.7-0.1-1.3-0.2-2c0-1.7,0-3.4,0-5.2c0-0.6,0-1.1-0.1-1.7c-0.2-1-0.5-1.9-1.3-2.7
		c-1.1-1.1-2.4-1.5-3.9-1.5c-0.9,0-1.8,0-2.7,0.1c-1.1,0.1-2.1,0.4-3.1,0.9c-0.2,0.1-0.2,0.2-0.2,0.4c0.2,0.6,0.3,1.2,0.5,1.7
		c0.1,0.3,0.2,0.6,0.3,1c0.1,0,0.1,0,0.1,0c1.1-0.6,2.2-0.9,3.5-0.9c0.5,0,1.1,0,1.6,0.2c0.4,0.2,0.6,0.5,0.6,1
		c-0.2,0-0.4,0-0.6,0.1c-1.2,0-2.4,0.2-3.6,0.6c-2.1,0.8-3.5,2.3-3.3,4.8c0.1,1.4,0.8,2.4,2,3.1c0.9,0.5,1.8,0.6,2.8,0.5
		c1.1-0.1,2.1-0.4,2.9-1.2c0.1-0.1,0.1-0.1,0.3-0.2c0.1,0.3,0.2,0.6,0.2,0.8c0,0.3,0.2,0.4,0.4,0.4c1,0,2,0,3.1,0c0.2,0,0.5,0,0.8,0
		C-96.3,92.1-96.3,92.1-96.3,92z M-101.1,87.1c0,0.2,0,0.3,0,0.5c0,1.1-1.1,1.9-2.1,1.6c-0.5-0.1-0.8-0.4-0.9-0.8
		c-0.1-0.5,0-1,0.4-1.4s1-0.5,1.5-0.6c0.3,0,0.6-0.1,0.9-0.1c0.1,0,0.2,0.1,0.2,0.2C-101,86.7-101.1,86.9-101.1,87.1L-101.1,87.1z"
		/>
	<g>
		<path class="st8" d="M-34.4,88.2c0.1,0,0.2,0.1,0.3,0.1c0.9,0.3,1.7,0.8,2.4,1.4c0.1,0.1,0.2,0.3,0.3,0.4c0,0.1,0,0.2,0,0.3
			c0,0-0.1,0-0.2,0c-0.8-0.4-1.6-0.9-2.5-1.3c-0.2-0.1-0.4-0.2-0.5-0.4c-0.1-0.1-0.1-0.2-0.1-0.3C-34.6,88.3-34.5,88.2-34.4,88.2z"
			/>
		<path class="st8" d="M-32.6,81.4c-0.1,0.1-0.2,0.1-0.3,0.2c-1.6,0.7-3.3,1.3-4.9,1.9c-0.3,0.1-0.5,0.3-0.7,0.6
			c-0.1,0.2-0.5,0.2-0.6,0c0-0.1,0-0.2,0.1-0.2c0.1-0.1,0.2-0.2,0.4-0.2c1.9-0.7,3.9-1.5,5.8-2.2C-32.7,81.4-32.7,81.4-32.6,81.4
			L-32.6,81.4z"/>
		<path class="st8" d="M-43.7,89.6c-0.1,0.1-0.1,0.2-0.2,0.3c-0.2,0.3-0.2,0.6-0.1,0.9c0.1,0.3,0.3,0.6,0.4,0.9
			c0,0.1,0.1,0.2,0.1,0.3c0.1,0.3-0.1,0.4-0.3,0.3c-0.3-0.1-0.5-0.2-0.6-0.4c-0.3-0.6-0.2-1.7,0.3-2.2C-44,89.7-43.9,89.7-43.7,89.6
			C-43.8,89.6-43.7,89.6-43.7,89.6z"/>
		<path class="st8" d="M-44.8,77.5c0.3,0.1,0.5,0.2,0.7,0.3c0.1,0,0.1,0.1,0.1,0.2c-0.1,0.2-0.2,0.4-0.4,0.5c-0.1,0.1-0.3,0-0.4,0
			s-0.2-0.1-0.2-0.2c-0.1-0.1-0.1-0.3-0.1-0.4C-45.1,77.7-44.9,77.6-44.8,77.5z"/>
		<path class="st8" d="M-35.1,79.2c-0.4,0-0.5-0.1-0.5-0.5c0-0.3,0.2-0.5,0.6-0.5c0.3,0,0.5,0.2,0.5,0.4
			C-34.5,79-34.7,79.2-35.1,79.2z"/>
		<path class="st8" d="M-44.7,88.5c0.8-1.1,1.9-2,2.9-2.9l0.1,0.1C-42.6,86.6-43.6,87.5-44.7,88.5z"/>
	</g>
</g>
<path class="st14" d="M-254.9,75.3v-1.1h-9.9v1.1h-2.5v4.9c0,1,1.2,1.8,2.9,2.2c0.6,1.1,2,1.8,3.6,2.1v1.9c-1.9,0.2-3.3,0.8-3.3,1.6
	h8.6c0-0.8-1.4-1.4-3.3-1.6v-1.9c1.6-0.2,2.9-1,3.5-2c1.7-0.4,3-1.2,3-2.2v-5H-254.9z M-266.2,80.2v-3.8h1.4v4.4l0,0
	c0,0.1,0,0.1,0,0.2c0,0,0,0,0,0.1C-265.7,80.8-266.2,80.4-266.2,80.2z M-257.7,82.4l-2.1-1.5l-2.1,1.5l0.8-2.5l-2.1-1.5h2.6l0.8-2.5
	l0.8,2.4h2.6l-2.1,1.5L-257.7,82.4z M-253.5,80.2c0,0.2-0.5,0.6-1.4,0.9V81c0-0.1,0-0.1,0-0.2l0,0v-4.4h1.4V80.2z"/>
<g>
	<g>
		<path class="st14" d="M-214.1,75.3h-9.9c-0.9,0-1.6,0.7-1.6,1.6v6.5c0,0.9,0.7,1.6,1.6,1.6h5l1,3l1.9-3h1.9c0.9,0,1.6-0.7,1.6-1.6
			V77C-212.5,76.1-213.3,75.3-214.1,75.3z"/>
	</g>
</g>
<g>
	<g>
		<polygon class="st14" points="-248.1,83.5 -243,75.8 -237.9,83.5 		"/>
		<rect x="-244.5" y="83.1" class="st14" width="3.1" height="4.1"/>
	</g>
	<path class="st14" d="M-234.4,76.7v2.9v1h1h1.9l-3.5,5.2l-3.5-5.2h1.9h1v-1v-2.9H-234.4 M-233.5,75.7h-3.2v3.8h-3.7l5.3,7.9
		l5.3-7.9h-3.7L-233.5,75.7L-233.5,75.7z"/>
</g>
<g>
	<path id="pensil_1_" class="st14" d="M-192.6,75.4l-1.5-1.5c-0.4-0.4-1-0.4-1.4,0l-1,0.9l2.8,2.9l1-0.9
		C-192.3,76.4-192.2,75.8-192.6,75.4z M-204.3,82.3l2.8,2.9l6.9-6.6l-2.8-2.9L-204.3,82.3z M-206,86.8l3.3-0.5l-2.7-2.8L-206,86.8z"
		/>
</g>
<polygon class="st0" points="-210.1,138 -202.1,138 -206.1,144 "/>
<g>
	<path class="st15" d="M-305.7,145.1c-1.5,0-2.5-0.3-3.4-1.3l1-1c0.7,0.7,1.5,0.9,2.5,0.9c1.3,0,2-0.5,2-1.5c0-0.4-0.1-0.8-0.4-1
		c-0.2-0.2-0.5-0.3-1.1-0.4l-1.1-0.2c-0.8-0.1-1.4-0.4-1.8-0.8c-0.5-0.4-0.7-1.1-0.7-1.8c0-1.7,1.2-2.8,3.2-2.8c1.3,0,2.2,0.3,3,1.1
		l-0.9,0.9c-0.6-0.6-1.3-0.7-2.1-0.7c-1.1,0-1.8,0.7-1.8,1.5c0,0.4,0.1,0.7,0.4,0.9c0.2,0.2,0.6,0.4,1.1,0.4l1.1,0.2
		c0.9,0.1,1.4,0.4,1.8,0.7c0.5,0.5,0.8,1.2,0.8,2C-302.2,144-303.6,145.1-305.7,145.1z"/>
	<path class="st15" d="M-298.3,145c-1.3,0-1.9-0.9-1.9-1.9v-3.8h-0.8v-1.1h0.8v-2.1h1.4v2.1h1.3v1.1h-1.3v3.7c0,0.5,0.2,0.8,0.8,0.8
		h0.6v1.2H-298.3z"/>
	<path class="st15" d="M-292.1,145v-0.6c-0.5,0.5-1,0.7-1.8,0.7c-0.9,0-1.4-0.2-1.8-0.6c-0.4-0.4-0.5-0.9-0.5-1.5c0-1.2,0.8-2,2.4-2
		h1.8v-0.5c0-0.9-0.4-1.3-1.5-1.3c-0.8,0-1.1,0.2-1.5,0.7l-1-0.9c0.7-0.8,1.3-1,2.5-1c1.9,0,2.8,0.8,2.8,2.4v4.6H-292.1z
		 M-292.1,141.9h-1.6c-0.8,0-1.2,0.4-1.2,1c0,0.6,0.4,1,1.3,1c0.5,0,0.9,0,1.3-0.4c0.2-0.2,0.3-0.5,0.3-1L-292.1,141.9L-292.1,141.9
		z"/>
	<path class="st15" d="M-285.8,145.1c-1.5,0-3.1-1-3.1-3.5c0-2.6,1.5-3.5,3.1-3.5c1,0,1.6,0.3,2.3,1l-1,0.9
		c-0.4-0.5-0.8-0.7-1.3-0.7s-1,0.2-1.3,0.6c-0.3,0.4-0.4,0.9-0.4,1.7c0,0.8,0.1,1.3,0.4,1.7c0.3,0.4,0.7,0.6,1.3,0.6
		c0.5,0,0.9-0.2,1.3-0.7l1,0.9C-284.2,144.8-284.9,145.1-285.8,145.1z"/>
	<path class="st15" d="M-277.6,145l-1.9-3.2l-1,1.2v2h-1.5v-9.7h1.4v6l2.7-3.2h1.7l-2.4,2.7l2.7,4.2H-277.6z"/>
	<path class="st16" d="M-274.5,145v-9.7h6.4v1.7h-4.5v2.3h3.8v1.7h-3.8v2.4h4.5v1.6H-274.5z"/>
	<path class="st16" d="M-262.5,145l-1.3-2.1l-1.3,2.1h-2.1l2.4-3.6l-2.4-3.5h2.2l1.2,2l1.2-2h2.1l-2.4,3.5l2.4,3.6H-262.5z"/>
	<path class="st16" d="M-256.7,145.1c-1.4,0-3.2-0.8-3.2-3.6c0-2.9,1.8-3.6,3.2-3.6c1,0,1.7,0.3,2.3,1l-1.2,1.1
		c-0.4-0.4-0.7-0.6-1.1-0.6c-0.4,0-0.7,0.1-1,0.5c-0.3,0.3-0.4,0.8-0.4,1.6c0,0.7,0.1,1.2,0.4,1.6c0.3,0.3,0.6,0.5,1,0.5
		c0.5,0,0.8-0.2,1.1-0.6l1.2,1.2C-255,144.7-255.7,145.1-256.7,145.1z"/>
	<path class="st16" d="M-248.9,145v-4.3c0-0.9-0.6-1.3-1.2-1.3c-0.6,0-1.1,0.3-1.1,1.3v4.3h-1.8v-9.7h1.8v3.2
		c0.5-0.5,1.1-0.7,1.7-0.7c1.5,0,2.4,1.1,2.4,2.6v4.6H-248.9z"/>
	<path class="st16" d="M-241.6,145v-0.6c-0.5,0.5-0.9,0.7-1.7,0.7c-0.8,0-1.4-0.2-1.8-0.6c-0.4-0.4-0.6-1-0.6-1.6
		c0-1.1,0.8-2.1,2.4-2.1h1.7v-0.4c0-0.8-0.4-1.1-1.3-1.1c-0.7,0-1,0.2-1.4,0.6l-1.1-1.1c0.7-0.8,1.4-1,2.6-1c2,0,3,0.8,3,2.5v4.7
		H-241.6z M-241.7,142h-1.4c-0.6,0-1,0.3-1,0.8s0.3,0.8,1,0.8c0.5,0,0.8,0,1.1-0.3c0.2-0.2,0.3-0.5,0.3-0.9V142z"/>
	<path class="st16" d="M-233.9,145v-4.3c0-1-0.6-1.3-1.2-1.3c-0.6,0-1.2,0.3-1.2,1.3v4.3h-1.7v-7.1h1.7v0.7c0.5-0.5,1.1-0.7,1.8-0.7
		c0.7,0,1.3,0.2,1.7,0.6c0.6,0.6,0.7,1.2,0.7,2v4.5H-233.9z"/>
	<path class="st16" d="M-227.8,147.6c-1.1,0-1.8-0.2-2.6-0.9l1.1-1.1c0.4,0.4,0.8,0.5,1.4,0.5c1.1,0,1.4-0.7,1.4-1.5V144
		c-0.5,0.5-1,0.7-1.7,0.7s-1.3-0.2-1.7-0.6c-0.7-0.7-0.7-1.6-0.7-2.8c0-1.2,0.1-2.1,0.7-2.8c0.4-0.4,1-0.6,1.7-0.6s1.2,0.2,1.7,0.7
		v-0.7h1.7v6.8C-224.7,146.4-225.9,147.6-227.8,147.6z M-227.6,139.4c-1,0-1.2,0.9-1.2,1.8c0,0.9,0.1,1.8,1.2,1.8
		c1,0,1.2-0.9,1.2-1.8C-226.4,140.3-226.6,139.4-227.6,139.4z"/>
	<path class="st16" d="M-221.3,142c0,0.9,0.6,1.6,1.5,1.6c0.8,0,1.2-0.2,1.6-0.7l1.1,1c-0.7,0.7-1.4,1.1-2.7,1.1
		c-1.7,0-3.3-0.8-3.3-3.6c0-2.3,1.3-3.6,3.1-3.6c2,0,3.1,1.4,3.1,3.4v0.8H-221.3z M-218.8,140c-0.2-0.4-0.6-0.7-1.2-0.7
		s-1,0.3-1.2,0.7c-0.1,0.3-0.1,0.4-0.2,0.8h2.7C-218.6,140.5-218.7,140.3-218.8,140z"/>
</g>
<polygon class="st0" points="-210.1,107 -202.1,107 -206.1,113 "/>
<g>
	<path class="st8" d="M-305.7,114.1c-1.5,0-2.5-0.3-3.4-1.3l1-1c0.7,0.7,1.5,0.9,2.5,0.9c1.3,0,2-0.5,2-1.5c0-0.4-0.1-0.8-0.4-1
		c-0.2-0.2-0.5-0.3-1.1-0.4l-1.1-0.2c-0.8-0.1-1.4-0.4-1.8-0.8c-0.5-0.4-0.7-1.1-0.7-1.8c0-1.7,1.2-2.8,3.2-2.8c1.3,0,2.2,0.3,3,1.1
		l-0.9,0.9c-0.6-0.6-1.3-0.7-2.1-0.7c-1.1,0-1.8,0.7-1.8,1.5c0,0.4,0.1,0.7,0.4,0.9c0.2,0.2,0.6,0.4,1.1,0.4l1.1,0.2
		c0.9,0.1,1.4,0.4,1.8,0.7c0.5,0.5,0.8,1.2,0.8,2C-302.2,113-303.6,114.1-305.7,114.1z"/>
	<path class="st8" d="M-298.3,114c-1.3,0-1.9-0.9-1.9-1.9v-3.8h-0.8v-1.1h0.8v-2.1h1.4v2.1h1.3v1.1h-1.3v3.7c0,0.5,0.2,0.8,0.8,0.8
		h0.6v1.2H-298.3z"/>
	<path class="st8" d="M-292.1,114v-0.6c-0.5,0.5-1,0.7-1.8,0.7c-0.9,0-1.4-0.2-1.8-0.6c-0.4-0.4-0.5-0.9-0.5-1.5c0-1.2,0.8-2,2.4-2
		h1.8v-0.5c0-0.9-0.4-1.3-1.5-1.3c-0.8,0-1.1,0.2-1.5,0.7l-1-0.9c0.7-0.8,1.3-1,2.5-1c1.9,0,2.8,0.8,2.8,2.4v4.6H-292.1z
		 M-292.1,110.9h-1.6c-0.8,0-1.2,0.4-1.2,1s0.4,1,1.3,1c0.5,0,0.9,0,1.3-0.4c0.2-0.2,0.3-0.5,0.3-1L-292.1,110.9L-292.1,110.9z"/>
	<path class="st8" d="M-285.8,114.1c-1.5,0-3.1-1-3.1-3.5c0-2.6,1.5-3.5,3.1-3.5c1,0,1.6,0.3,2.3,1l-1,0.9c-0.4-0.5-0.8-0.7-1.3-0.7
		s-1,0.2-1.3,0.6c-0.3,0.4-0.4,0.9-0.4,1.7s0.1,1.3,0.4,1.7c0.3,0.4,0.7,0.6,1.3,0.6c0.5,0,0.9-0.2,1.3-0.7l1,0.9
		C-284.2,113.8-284.9,114.1-285.8,114.1z"/>
	<path class="st8" d="M-277.6,114l-1.9-3.2l-1,1.2v2h-1.5v-9.7h1.4v6l2.7-3.2h1.7l-2.4,2.7l2.7,4.2H-277.6z"/>
	<path class="st16" d="M-274.5,114v-9.7h6.4v1.7h-4.5v2.3h3.8v1.7h-3.8v2.4h4.5v1.6H-274.5z"/>
	<path class="st16" d="M-262.5,114l-1.3-2.1l-1.3,2.1h-2.1l2.4-3.6l-2.4-3.5h2.2l1.2,2l1.2-2h2.1l-2.4,3.5l2.4,3.6H-262.5z"/>
	<path class="st16" d="M-256.7,114.1c-1.4,0-3.2-0.8-3.2-3.6c0-2.9,1.8-3.6,3.2-3.6c1,0,1.7,0.3,2.3,1l-1.2,1.1
		c-0.4-0.4-0.7-0.6-1.1-0.6c-0.4,0-0.7,0.1-1,0.5c-0.3,0.3-0.4,0.8-0.4,1.6c0,0.7,0.1,1.2,0.4,1.6c0.3,0.3,0.6,0.5,1,0.5
		c0.5,0,0.8-0.2,1.1-0.6l1.2,1.2C-255,113.7-255.7,114.1-256.7,114.1z"/>
	<path class="st16" d="M-248.9,114v-4.3c0-0.9-0.6-1.3-1.2-1.3c-0.6,0-1.1,0.3-1.1,1.3v4.3h-1.8v-9.7h1.8v3.2
		c0.5-0.5,1.1-0.7,1.7-0.7c1.5,0,2.4,1.1,2.4,2.6v4.6H-248.9z"/>
	<path class="st16" d="M-241.6,114v-0.6c-0.5,0.5-0.9,0.7-1.7,0.7c-0.8,0-1.4-0.2-1.8-0.6c-0.4-0.4-0.6-1-0.6-1.6
		c0-1.1,0.8-2.1,2.4-2.1h1.7v-0.4c0-0.8-0.4-1.1-1.3-1.1c-0.7,0-1,0.2-1.4,0.6l-1.1-1.1c0.7-0.8,1.4-1,2.6-1c2,0,3,0.8,3,2.5v4.7
		H-241.6z M-241.7,111h-1.4c-0.6,0-1,0.3-1,0.8s0.3,0.8,1,0.8c0.5,0,0.8,0,1.1-0.3c0.2-0.2,0.3-0.5,0.3-0.9V111z"/>
	<path class="st16" d="M-233.9,114v-4.3c0-1-0.6-1.3-1.2-1.3c-0.6,0-1.2,0.3-1.2,1.3v4.3h-1.7v-7.1h1.7v0.7c0.5-0.5,1.1-0.7,1.8-0.7
		c0.7,0,1.3,0.2,1.7,0.6c0.6,0.6,0.7,1.2,0.7,2v4.5H-233.9z"/>
	<path class="st16" d="M-227.8,116.6c-1.1,0-1.8-0.2-2.6-0.9l1.1-1.1c0.4,0.4,0.8,0.5,1.4,0.5c1.1,0,1.4-0.7,1.4-1.5V113
		c-0.5,0.5-1,0.7-1.7,0.7s-1.3-0.2-1.7-0.6c-0.7-0.7-0.7-1.6-0.7-2.8s0.1-2.1,0.7-2.8c0.4-0.4,1-0.6,1.7-0.6s1.2,0.2,1.7,0.7v-0.7
		h1.7v6.8C-224.7,115.4-225.9,116.6-227.8,116.6z M-227.6,108.4c-1,0-1.2,0.9-1.2,1.8c0,0.9,0.1,1.8,1.2,1.8c1,0,1.2-0.9,1.2-1.8
		C-226.4,109.3-226.6,108.4-227.6,108.4z"/>
	<path class="st16" d="M-221.3,111c0,0.9,0.6,1.6,1.5,1.6c0.8,0,1.2-0.2,1.6-0.7l1.1,1c-0.7,0.7-1.4,1.1-2.7,1.1
		c-1.7,0-3.3-0.8-3.3-3.6c0-2.3,1.3-3.6,3.1-3.6c2,0,3.1,1.4,3.1,3.4v0.8H-221.3z M-218.8,109c-0.2-0.4-0.6-0.7-1.2-0.7
		s-1,0.3-1.2,0.7c-0.1,0.3-0.1,0.4-0.2,0.8h2.7C-218.6,109.5-218.7,109.3-218.8,109z"/>
</g>
<g>
	<rect x="-329" y="140" class="st17" width="12" height="2"/>
	<rect x="-329" y="137" class="st18" width="12" height="2"/>
	<path class="st19" d="M-318.9,134h-8.1c-1,0-1.9,0.7-1.9,1.5v0.5h12v-0.5C-317,134.7-317.9,134-318.9,134z"/>
	<path class="st20" d="M-329,143v0.6c0,1.1,0.9,1.9,1.9,1.9h5.2v2.5l2.5-2.5h0.5c1.1,0,1.9-0.9,1.9-1.9V143H-329z"/>
	<path class="st21" d="M-329,143v0.6c0,1,0.8,1.9,1.8,1.9h0.3l2.4-2.5H-329z"/>
	<polygon class="st21" points="-318.8,137 -329,137 -329,139 -321,139 	"/>
	<polygon class="st21" points="-321.6,140 -329,140 -329,142 -323.9,142 	"/>
</g>
<g>
	<rect x="-329" y="109" class="st17" width="12" height="2"/>
	<rect x="-329" y="106" class="st18" width="12" height="2"/>
	<path class="st19" d="M-318.9,103h-8.1c-1,0-1.9,0.7-1.9,1.5v0.5h12v-0.5C-317,103.7-317.9,103-318.9,103z"/>
	<path class="st20" d="M-329,112v0.6c0,1.1,0.9,1.9,1.9,1.9h5.2v2.5l2.5-2.5h0.5c1.1,0,1.9-0.9,1.9-1.9V112H-329z"/>
	<path class="st21" d="M-329,112v0.6c0,1,0.8,1.9,1.8,1.9h0.3l2.4-2.5H-329z"/>
	<polygon class="st21" points="-318.8,106 -329,106 -329,108 -321,108 	"/>
	<polygon class="st21" points="-321.6,109 -329,109 -329,111 -323.9,111 	"/>
</g>
<g>
	<polygon class="st22" points="-165,73 -163.6,77.6 -159,77.6 -162.7,80.4 -161.3,85 -165,82.2 -168.7,85 -167.3,80.4 -171,77.6 
		-166.4,77.6 	"/>
</g>
<g>
	<polygon class="st23" points="-321,301 -328,301 -328,294 -326,294 -326,293 -327.7,293 -329,293 -329,294.3 -329,300.7 -329,302 
		-327.7,302 -321.3,302 -320,302 -320,300.7 -320,299 -321,299 	"/>
	<polygon class="st23" points="-321.3,293 -324,293 -324,294 -321.7,294 -325.4,297.7 -324.7,298.4 -321,294.7 -321,297 -320,297 
		-320,294.3 -320,293 	"/>
</g>
<g>
	<polygon class="st24" points="-308,301 -315,301 -315,294 -313,294 -313,293 -314.7,293 -316,293 -316,294.3 -316,300.7 -316,302 
		-314.7,302 -308.3,302 -307,302 -307,300.7 -307,299 -308,299 	"/>
	<polygon class="st24" points="-308.3,293 -311,293 -311,294 -308.7,294 -312.4,297.7 -311.7,298.4 -308,294.7 -308,297 -307,297 
		-307,294.3 -307,293 	"/>
</g>
</svg>
