<?xml version="1.0" encoding="utf-8"?>
<!-- Generator: Adobe Illustrator 18.1.0, SVG Export Plug-In . SVG Version: 6.00 Build 0)  -->
<svg version="1.1" id="Layer_1" xmlns="http://www.w3.org/2000/svg" xmlns:xlink="http://www.w3.org/1999/xlink" x="0px" y="0px"
	 width="240px" height="500px" viewBox="-135 14 240 500" enable-background="new -135 14 240 500" xml:space="preserve">
<g id="Layer_2_1_">
</g>
<g>
	<g>
		<polygon fill="#44B449" points="-87,294.8 -87,302.4 -78.5,310 -62,295.2 -62,287 -78.5,301.9 		"/>
	</g>
	<g>
		<polygon fill="#44B449" points="-112.6,338 -112.6,341.5 -108.5,345.1 -101.6,338.9 -101.6,335.1 -108.5,341.3 		"/>
	</g>
	<g>
		<polygon fill="#C0C0C0" points="-127,294.8 -127,302.4 -118.4,310 -102,295.2 -102,287 -118.4,301.9 		"/>
	</g>
	<polygon fill="#FE7A16" points="-90,205 -61,205 -75.4,190 	"/>
	<polygon fill="#818185" points="-130,205 -101,205 -115.5,190 	"/>
	<polygon fill="#FE7A16" points="-75.4,257 -61,242 -90,242 	"/>
	<polygon fill="#FE7A16" points="-128.5,336.3 -135,343.3 -122,343.3 	"/>
	<polygon fill="#818185" points="-127.8,400.5 -134.8,394 -134.8,407 	"/>
	<polygon fill="#818185" points="-80.9,487.6 -87.9,481.2 -87.9,494.2 	"/>
	<polygon fill="#818185" points="-128.5,487.7 -121.5,494.2 -121.5,481.2 	"/>
	<polygon fill="#818185" points="-108.2,404 -101.8,397 -114.8,397 	"/>
	<polygon fill="#B8B8B8" points="-128.5,355.3 -135,362.3 -122,362.3 	"/>
	<polygon fill="#818185" points="-115.5,257 -101,242 -130,242 	"/>
	<g>
		<polygon fill="#FFD83D" points="-75.4,151.8 -82.1,156.7 -79.7,148.6 -86.3,143.8 -78,143.8 -75.4,135.7 -72.8,143.8 -64.5,143.8 
			-71.1,148.6 -68.7,156.7 		"/>
		<path fill="#EAC328" d="M-75.4,137.4l2,6.1l0.2,0.7h0.7h6.3l-5.3,3.8l-0.6,0.4l0.2,0.7l2,6.1l-5.3-3.8l-0.6-0.4l-0.6,0.4l-5.3,3.8
			l2-6.1l0.2-0.7l-0.6-0.4l-5.3-3.8h6.3h0.7l0.2-0.7L-75.4,137.4 M-75.4,134l-3,9.1H-88l7.7,5.7l-3,9.1l7.7-5.7l7.7,5.7l-3-9.1
			l7.7-5.7h-9.6L-75.4,134L-75.4,134z"/>
	</g>
	<g>
		<polygon fill="#C0C0C0" points="-115.5,134 -112.6,143.2 -103,143.2 -110.7,148.8 -107.7,158 -115.5,152.3 -123.3,158 
			-120.3,148.8 -128,143.2 -118.4,143.2 		"/>
	</g>
	<circle fill="#CC9966" cx="-70" cy="419" r="3"/>
	<circle fill="#C5C5C5" cx="-50" cy="419" r="3"/>
	<circle fill="#FFCC00" cx="-30" cy="419" r="3"/>
	<rect x="-87.8" y="381" fill="#9E9E9E" width="2" height="2"/>
	<rect x="-84.8" y="384" fill="#9E9E9E" width="2" height="2"/>
	<rect x="-78.8" y="384" fill="#9E9E9E" width="2" height="2"/>
	<rect x="-72.8" y="384" fill="#9E9E9E" width="2" height="2"/>
	<rect x="-66.8" y="384" fill="#9E9E9E" width="2" height="2"/>
	<rect x="-81.7" y="381" fill="#9E9E9E" width="2" height="2"/>
	<rect x="-75.7" y="381" fill="#9E9E9E" width="2" height="2"/>
	<rect x="-69.7" y="381" fill="#9E9E9E" width="2" height="2"/>
	<rect x="-63.6" y="381" fill="#9E9E9E" width="2" height="2"/>
	<g>
		<path fill="#C5C5C5" d="M-134.8,414v31h3.4c0.3-5.5,3.7-10.1,8.3-11.8V432c-1.8-1.2-3-3.3-3-5.6c0-3.7,3-6.7,6.8-6.7
			s6.8,3,6.8,6.7c0,2.3-1.2,4.4-3,5.6v1.2c4.6,1.7,8,6.3,8.3,11.8h3.4v-31H-134.8z"/>
		<path fill="#FFFFFF" d="M-131.3,445h24.3c-0.3-5.5-3.7-10.1-8.3-11.8V432c1.8-1.2,3-3.3,3-5.6c0-3.7-3-6.7-6.8-6.7s-6.8,3-6.8,6.7
			c0,2.3,1.2,4.4,3,5.6v1.2C-127.5,434.9-131,439.5-131.3,445z"/>
	</g>
	<g>
		<rect x="-74.7" y="354" fill="#B8B8B8" width="1.9" height="14"/>
		<rect x="-71.8" y="355" fill="#CCCCCC" width="10.1" height="8"/>
	</g>
	<g>
		<rect x="-74.7" y="334.1" fill="#D35F5F" width="1.9" height="14"/>
		<rect x="-71.8" y="335.1" fill="#F89393" width="10.1" height="8"/>
	</g>
	<g>
		<rect x="-54.7" y="334.1" fill="#FE6502" width="14" height="14"/>
		<path fill="#FFFFFF" d="M-51.5,343.5c-0.8,0-1.4,0.6-1.4,1.4s0.6,1.4,1.4,1.4s1.4-0.6,1.4-1.4C-50.1,344.2-50.7,343.5-51.5,343.5z
			 M-52.9,339.5v2c1.3,0,2.5,0.5,3.4,1.4s1.4,2.1,1.4,3.4h2C-46,342.5-49.1,339.5-52.9,339.5z M-52.9,335.9v2c4.6,0,8.4,3.8,8.4,8.4
			h2C-42.5,340.6-47.2,335.9-52.9,335.9z"/>
	</g>
	<g>
		<polygon fill="#7A7A7A" points="-112.4,361.1 -113.1,364.3 -109.9,363.6 		"/>
		
			<rect x="-110.3" y="357.3" transform="matrix(-0.7071 -0.7071 0.7071 -0.7071 -439.7899 537.5913)" fill="#7A7A7A" width="3.5" height="5.1"/>
		<path fill="#7A7A7A" d="M-105.9,355.3c-0.4,0-0.8,0.1-1.1,0.4l-0.7,0.7l2.5,2.5l0.7-0.7c0.2-0.3,0.4-0.7,0.4-1.1
			C-104.1,356.1-104.9,355.3-105.9,355.3z"/>
	</g>
	<g>
		<circle fill="#C03433" cx="-28" cy="465.8" r="6.5"/>
		<path fill="#FFFFFF" d="M-24.8,467.7L-24.8,467.7l-1.9-1.9l1.9-1.9l0,0c0,0,0,0,0-0.1s0-0.2,0-0.2l-0.9-0.9
			c-0.1-0.1-0.1-0.1-0.2,0H-26l0,0l-1.9,1.9l-1.9-1.9l0,0c0,0,0,0-0.1,0s-0.2,0-0.2,0l-0.9,0.9c-0.1,0.1-0.1,0.1,0,0.2v0.1l0,0
			l1.9,1.9l-1.9,1.9l0,0c0,0,0,0,0,0.1s0,0.2,0,0.2l0.9,0.9c0.1,0.1,0.1,0.1,0.2,0h0.1l0,0l1.9-1.9l1.9,1.9l0,0c0,0,0,0,0.1,0
			s0.2,0,0.2,0l0.9-0.9C-24.8,468-24.8,467.9-24.8,467.7C-24.8,467.8-24.8,467.8-24.8,467.7z"/>
	</g>
	<g>
		<circle fill="#C03433" cx="-87.8" cy="360.9" r="6.5"/>
		<path fill="#FFFFFF" d="M-84.6,362.8L-84.6,362.8l-1.9-1.9l1.9-1.9l0,0c0,0,0,0,0-0.1s0-0.2,0-0.2l-0.9-0.9
			c-0.1-0.1-0.1-0.1-0.2,0h-0.1l0,0l-1.9,1.9l-1.9-1.9l0,0c0,0,0,0-0.1,0s-0.2,0-0.2,0l-0.9,0.9c-0.1,0.1-0.1,0.1,0,0.2v0.1l0,0
			l1.9,1.9l-1.9,1.9l0,0c0,0,0,0,0,0.1s0,0.2,0,0.2l0.9,0.9c0.1,0.1,0.1,0.1,0.2,0h0.1l0,0l1.9-1.9l1.9,1.9l0,0c0,0,0,0,0.1,0
			s0.2,0,0.2,0l0.9-0.9C-84.6,363-84.6,362.9-84.6,362.8C-84.6,362.9-84.6,362.8-84.6,362.8z"/>
	</g>
	<g>
		<circle fill="#CCCCCC" cx="-87.8" cy="340.1" r="6.5"/>
		<path fill="#FFFFFF" d="M-84.6,342.1L-84.6,342.1l-1.9-1.9l1.9-1.9l0,0c0,0,0,0,0-0.1s0-0.2,0-0.2l-0.9-0.9
			c-0.1-0.1-0.1-0.1-0.2,0h-0.1l0,0l-2,1.8l-1.9-1.9l0,0c0,0,0,0-0.1,0s-0.2,0-0.2,0l-0.9,0.9c-0.1,0.1-0.1,0.1,0,0.2v0.1l0,0
			l1.9,1.9l-1.9,1.9l0,0c0,0,0,0,0,0.1s0,0.2,0,0.2l0.9,0.9c0.1,0.1,0.1,0.1,0.2,0h0.1l0,0l1.9-1.9l1.9,1.9l0,0c0,0,0,0,0.1,0
			s0.2,0,0.2,0l0.9-0.9C-84.6,342.3-84.6,342.2-84.6,342.1L-84.6,342.1z"/>
	</g>
	<g>
		<path fill="#222426" d="M-92.2,45.4l-2.2-0.2c-1.7-0.1-2.3-0.8-2.3-2c0-1.4,1-2.2,3-2.2c1.4,0,2.6,0.3,3.6,1.1l1.3-1.3
			c-1.2-1-2.9-1.4-4.8-1.4c-2.9,0-4.9,1.5-4.9,3.9c0,2.2,1.4,3.4,4,3.6l2.2,0.2c1.6,0.1,2.2,0.8,2.2,2c0,1.6-1.4,2.4-3.6,2.4
			c-1.7,0-3.1-0.4-4.2-1.6l-1.3,1.3c1.5,1.4,3.2,1.9,5.5,1.9c3.2,0,5.5-1.5,5.5-4.1C-88.2,46.5-89.8,45.6-92.2,45.4z M-75.4,39.3
			c-2.2,0-3.5,0.4-4.7,1.9l1.3,1.3c0.8-1.1,1.7-1.5,3.4-1.5c2.5,0,3.4,1,3.4,2.9v1.3h-4c-3,0-4.6,1.5-4.6,3.9c0,1.1,0.4,2.1,1,2.7
			c0.8,0.9,1.9,1.2,3.8,1.2c1.8,0,2.8-0.4,3.9-1.4v1.3h2v-9.1C-70,40.9-71.8,39.3-75.4,39.3z M-72,48.2c0,1.1-0.2,1.9-0.7,2.3
			c-0.8,0.8-1.9,0.9-3,0.9c-2.1,0-3.1-0.7-3.1-2.3s1-2.4,3-2.4h3.8C-72,46.7-72,48.2-72,48.2z M-62.3,41.1c1.3,0,2.1,0.4,3.1,1.5
			l1.3-1.3c-1.4-1.5-2.5-2-4.4-2c-3.4,0-5.9,2.3-5.9,6.9s2.6,6.9,5.9,6.9c1.9,0,3-0.5,4.4-2l-1.3-1.3c-1,1.1-1.8,1.5-3.1,1.5
			s-2.4-0.5-3.1-1.5c-0.6-0.9-0.9-1.9-0.9-3.6c0-1.7,0.2-2.7,0.9-3.6C-64.7,41.6-63.6,41.1-62.3,41.1z M-45.5,39.5h-2.4l-6.1,5.9
			V33.5h-2v19.4h2V48l2.4-2.4l4.5,7.3h2.4l-5.6-8.6L-45.5,39.5z M-36.3,38.8c-2.1,0-3.5,0.8-4.3,1.7c-1.3,1.3-1.6,2.9-1.6,5.4
			s0.3,4.1,1.6,5.4c0.9,0.9,2.3,1.7,4.3,1.7c2.1,0,3.5-0.8,4.3-1.7c1.3-1.3,1.6-2.9,1.6-5.4s-0.3-4.1-1.6-5.4
			C-32.8,39.6-34.2,38.8-36.3,38.8z M-34.6,49.3c-0.4,0.4-0.9,0.6-1.6,0.6s-1.2-0.2-1.6-0.6c-0.7-0.7-0.8-2-0.8-3.4s0.1-2.7,0.8-3.4
			c0.4-0.4,0.9-0.6,1.6-0.6s1.2,0.2,1.6,0.6c0.7,0.7,0.8,1.9,0.8,3.4C-33.8,47.4-33.9,48.6-34.6,49.3z M-21,38.9l-2.8,8.6l-2.8-8.6
			h-3.7l5.2,14h2.7l5.1-14C-17.3,38.9-21,38.9-21,38.9z M-11.4,38.8c-3.6,0-6.1,2.6-6.1,7.1c0,5.7,3.2,7.2,6.5,7.2
			c2.5,0,3.9-0.8,5.3-2.2l-2.1-2.1c-0.9,0.9-1.6,1.3-3.2,1.3c-2,0-3.1-1.3-3.1-3.1h8.7v-1.6C-5.3,41.6-7.5,38.8-11.4,38.8z
			 M-14.1,44.6c0-0.6,0.1-1,0.3-1.5c0.4-0.8,1.2-1.4,2.3-1.4c1.2,0,2,0.6,2.3,1.4c0.2,0.5,0.3,0.9,0.3,1.5H-14.1z M-0.2,40.3V39
			h-3.4v14h3.5v-8.4c0-1.8,1.2-2.6,2.3-2.6c0.9,0,1.3,0.3,1.8,0.8l2.6-2.6c-1-1-1.9-1.3-3.3-1.3C1.8,38.8,0.5,39.5-0.2,40.3z
			 M7.7,37.5v15.4h3.5v-11h2.6v-2.7h-2.6v-1.5c0-0.8,0.4-1.3,1.2-1.3h1.3v-3h-2C8.9,33.5,7.7,35.5,7.7,37.5z M28.1,38.8
			c-2.1,0-3.5,0.8-4.3,1.7c-1.3,1.3-1.6,2.9-1.6,5.4s0.3,4.1,1.6,5.4c0.9,0.9,2.3,1.7,4.3,1.7c2.1,0,3.5-0.8,4.3-1.7
			c1.3-1.3,1.6-2.9,1.6-5.4s-0.3-4.1-1.6-5.4C31.6,39.6,30.2,38.8,28.1,38.8z M29.8,49.3c-0.4,0.4-0.9,0.6-1.6,0.6s-1.2-0.2-1.6-0.6
			c-0.7-0.7-0.8-2-0.8-3.4s0.1-2.7,0.8-3.4c0.4-0.4,0.9-0.6,1.6-0.6s1.2,0.2,1.6,0.6c0.7,0.7,0.8,1.9,0.8,3.4
			C30.6,47.4,30.5,48.6,29.8,49.3z M50.5,38.9l-2.3,8.6l-2.9-8.6h-2.5L40,47.6L37.7,39H34l4.3,14h2.9l2.9-8.8L47,53h3l4.3-14
			L50.5,38.9L50.5,38.9z M18.9,48.7V33.5h-3.5v15.4c0,2,1.2,4,4.1,4h2v-3h-1.3C19.3,50,18.9,49.5,18.9,48.7z M-82.8,41.6l1.8-1.8
			h-3.7v-4.4h-2v13.9c0,2,1.1,3.6,3.4,3.6h1.4v-1.7h-1c-1.3,0-1.8-0.7-1.8-2v-7.7h1.9V41.6z"/>
		<polygon fill="#BCBBBB" points="-108.5,56.2 -108.5,46.3 -105.2,46.3 -105.2,59.5 -135,59.5 -135,46.3 -131.7,46.3 -131.7,56.2 		
			"/>
		<path fill="#F48024" d="M-128,45.4l16.2,3.4l0.7-3.2l-16.2-3.4L-128,45.4z M-125.9,37.6l15,7l1.4-3l-15-7L-125.9,37.6z
			 M-121.7,30.2l12.7,10.6l2.1-2.5l-12.7-10.6L-121.7,30.2z M-113.5,22.4l-2.7,2l9.9,13.3l2.7-2L-113.5,22.4z M-128.4,52.9h16.6
			v-3.3h-16.6V52.9z"/>
	</g>
</g>
</svg>
