<svg width="240" height="500" xmlns="http://www.w3.org/2000/svg">
 <g>
  <title>Layer 1</title>
  <g id="svg_69">
   <g id="Layer_2_1_"/>
   <g id="svg_1">
    <g id="svg_2">
     <polygon id="svg_3" points="48,272.3999881744385 48,279.9999942779541 56.5,287.6000003814697 73,272.800012588501 73,264.6000003814697 56.5,279.4999942779541 " fill="#44B449"/>
    </g>
    <g id="svg_4">
     <polygon id="svg_5" points="22.399999618530273,315.6000003814697 22.399999618530273,319.1000003814697 26.5,322.70000648498535 33.400001525878906,316.4999942779541 33.400001525878906,312.70000648498535 26.5,318.8999881744385 " fill="#44B449"/>
    </g>
    <g id="svg_6">
     <polygon id="svg_7" points="8,272.3999881744385 8,279.9999942779541 16.600000381469727,287.6000003814697 33,272.800012588501 33,264.6000003814697 16.600000381469727,279.4999942779541 " fill="#C0C0C0"/>
    </g>
    <polygon id="svg_8" points="45,182.60000038146973 74,182.60000038146973 59.599998474121094,167.60000038146973 " fill="#FE7A16"/>
    <polygon id="svg_9" points="5,182.60000038146973 34,182.60000038146973 19.5,167.60000038146973 " fill="#818185"/>
    <polygon id="svg_10" points="59.599998474121094,234.60000038146973 74,219.60000038146973 45,219.60000038146973 " fill="#FE7A16"/>
    <polygon id="svg_11" points="6.5,313.8999881744385 0,320.8999881744385 13,320.8999881744385 " fill="#FE7A16"/>
    <polygon id="svg_12" points="7.199999809265137,378.1000003814697 0.20000000298023224,371.6000003814697 0.20000000298023224,384.6000003814697 " fill="#818185"/>
    <polygon id="svg_13" points="54.099998474121094,465.20000648498535 47.099998474121094,458.800012588501 47.099998474121094,471.800012588501 " fill="#818185"/>
    <polygon id="svg_14" points="6.5,465.300012588501 13.5,471.800012588501 13.5,458.800012588501 " fill="#818185"/>
    <polygon id="svg_15" points="26.799999237060547,381.6000003814697 33.20000076293945,374.6000003814697 20.200000762939453,374.6000003814697 " fill="#818185"/>
    <polygon id="svg_16" points="6.5,332.8999881744385 0,339.8999881744385 13,339.8999881744385 " fill="#B8B8B8"/>
    <polygon id="svg_17" points="19.5,234.60000038146973 34,219.60000038146973 5,219.60000038146973 " fill="#818185"/>
    <g id="svg_18">
     <polygon id="svg_19" points="59.599998474121094,129.40000343322754 52.900001525878906,134.2999973297119 55.29999923706055,126.20000648498535 48.70000076293945,121.40000343322754 57,121.40000343322754 59.599998474121094,113.29999732971191 62.20000076293945,121.40000343322754 70.5,121.40000343322754 63.900001525878906,126.20000648498535 66.30000305175781,134.2999973297119 " fill="#FFD83D"/>
     <path id="svg_20" d="m59.599998,114.999992l2,6.099991l0.200001,0.700012h0.700001h6.300003l-5.300003,3.799988l-0.599998,0.400009l0.199997,0.699997l2,6.100014l-5.299999,-3.800003l-0.599998,-0.400009l-0.600002,0.400009l-5.299999,3.800003l2,-6.100014l0.200001,-0.699997l-0.599998,-0.400009l-5.300003,-3.799988h6.300003h0.699997l0.200001,-0.700012l2.799999,-6.099991m0,-3.399994l-3,9.100006h-9.599998l7.700001,5.699997l-3,9.099998l7.700001,-5.699997l7.699997,5.699997l-3,-9.099998l7.700005,-5.699997h-9.600002l-2.600002,-9.100006l0,0z" fill="#EAC328"/>
    </g>
    <g id="svg_21">
     <polygon id="svg_22" points="19.5,111.60000038146973 22.399999618530273,120.79999732971191 32,120.79999732971191 24.299999237060547,126.40000343322754 27.299999237060547,135.60000038146973 19.5,129.90000343322754 11.699999809265137,135.60000038146973 14.699999809265137,126.40000343322754 7,120.79999732971191 16.600000381469727,120.79999732971191 " fill="#C0C0C0"/>
    </g>
    <circle id="svg_23" r="3" cy="396.6" cx="65" fill="#CC9966"/>
    <circle id="svg_24" r="3" cy="396.6" cx="85" fill="#C5C5C5"/>
    <circle id="svg_25" r="3" cy="396.6" cx="105" fill="#FFCC00"/>
    <rect id="svg_26" height="2" width="2" fill="#9E9E9E" y="358.6" x="47.2"/>
    <rect id="svg_27" height="2" width="2" fill="#9E9E9E" y="361.6" x="50.2"/>
    <rect id="svg_28" height="2" width="2" fill="#9E9E9E" y="361.6" x="56.2"/>
    <rect id="svg_29" height="2" width="2" fill="#9E9E9E" y="361.6" x="62.2"/>
    <rect id="svg_30" height="2" width="2" fill="#9E9E9E" y="361.6" x="68.2"/>
    <rect id="svg_31" height="2" width="2" fill="#9E9E9E" y="358.6" x="53.3"/>
    <rect id="svg_32" height="2" width="2" fill="#9E9E9E" y="358.6" x="59.3"/>
    <rect id="svg_33" height="2" width="2" fill="#9E9E9E" y="358.6" x="65.3"/>
    <rect id="svg_34" height="2" width="2" fill="#9E9E9E" y="358.6" x="71.4"/>
    <g id="svg_35">
     <path id="svg_36" d="m0.2,391.600006v31h3.4c0.3,-5.5 3.7,-10.100006 8.3,-11.799988v-1.200012c-1.799999,-1.200012 -3,-3.299988 -3,-5.600006c0,-3.699982 3,-6.699982 6.8,-6.699982c3.8,0 6.8,3 6.8,6.699982c0,2.300018 -1.200001,4.399017 -3,5.600006v1.200012c4.6,1.699982 8,6.299988 8.299999,11.799988h3.400002v-31h-31.000001l0,0z" fill="#C5C5C5"/>
     <path id="svg_37" d="m3.7,422.600006h24.3c-0.299999,-5.5 -3.700001,-10.100006 -8.299999,-11.799988v-1.200012c1.799999,-1.200012 3,-3.299988 3,-5.600006c0,-3.699982 -3,-6.699982 -6.800001,-6.699982c-3.799999,0 -6.799999,3 -6.799999,6.699982c0,2.300018 1.2,4.399017 3,5.600006v1.200012c-4.6,1.699982 -8.1,6.299988 -8.4,11.799988z" fill="#FFFFFF"/>
    </g>
    <g id="svg_38">
     <rect id="svg_39" height="14" width="1.9" fill="#B8B8B8" y="331.6" x="60.3"/>
     <rect id="svg_40" height="8" width="10.1" fill="#CCCCCC" y="332.6" x="63.2"/>
    </g>
    <g id="svg_41">
     <rect id="svg_42" height="14" width="1.9" fill="#D35F5F" y="311.7" x="60.3"/>
     <rect id="svg_43" height="8" width="10.1" fill="#F89393" y="312.7" x="63.2"/>
    </g>
    <g id="svg_44">
     <rect id="svg_45" height="14" width="14" fill="#FE6502" y="311.7" x="80.3"/>
     <path id="svg_46" d="m83.5,321.100006c-0.800003,0 -1.400002,0.600006 -1.400002,1.399994c0,0.800018 0.599998,1.399017 1.400002,1.399017s1.400002,-0.600006 1.400002,-1.399017c0,-0.699982 -0.599998,-1.399994 -1.400002,-1.399994zm-1.400002,-4v2c1.300003,0 2.5,0.5 3.400002,1.399994c0.900002,0.899017 1.400002,2.100006 1.400002,3.399017h2c0.099998,-3.799011 -3,-6.799011 -6.800003,-6.799011zm0,-3.600006v2c4.599998,0 8.400002,3.799988 8.400002,8.398987h2c0,-5.698975 -4.699997,-10.398987 -10.400002,-10.398987z" fill="#FFFFFF"/>
    </g>
    <g id="svg_47">
     <polygon id="svg_48" points="22.600000381469727,338.70000648498535 21.899999618530273,341.8999881744385 25.100000381469727,341.20000648498535 " fill="#7A7A7A"/>
     <rect id="svg_49" height="5.1" width="3.5" fill="#7A7A7A" transform="matrix(0.7072,0.707,-0.707,0.7072,262.1956,86.7094) " y="341.505417" x="8.828897"/>
     <path id="svg_50" d="m29.1,332.899994c-0.4,0 -0.800001,0.101013 -1.1,0.399994l-0.700001,0.700012l2.5,2.5l0.700001,-0.700012c0.200001,-0.299988 0.4,-0.699982 0.4,-1.100983c0,-0.998993 -0.799999,-1.799011 -1.799999,-1.799011z" fill="#7A7A7A"/>
    </g>
    <g id="svg_51">
     <circle id="svg_52" r="6.5" cy="443.4" cx="107" fill="#C03433"/>
     <path id="svg_53" d="m110.199997,445.300018l0,0l-1.899994,-1.899994l1.899994,-1.899017l0,0c0,0 0,0 0,-0.100983c0,-0.100006 0,-0.200012 0,-0.200012l-0.899994,-0.898987c-0.100006,-0.101013 -0.100006,-0.101013 -0.200005,0h-0.099998l0,0l-1.900002,1.898987l-1.900002,-1.898987l0,0c0,0 0,0 -0.099998,0s-0.199997,0 -0.199997,0l-0.900002,0.898987c-0.099998,0.101013 -0.099998,0.101013 0,0.200012v0.100983l0,0l1.900002,1.899017l-1.900002,1.899994l0,0c0,0 0,0 0,0.100006c0,0.100983 0,0.199982 0,0.199982l0.900002,0.900024c0.099998,0.099976 0.099998,0.099976 0.199997,0h0.099998l0,0l1.900002,-1.900024l1.900002,1.900024l0,0c0,0 0,0 0.099998,0s0.200005,0 0.200005,0l0.899994,-0.900024c0,0 0,-0.100006 0,-0.299988c0,0.099976 0,0.099976 0,0z" fill="#FFFFFF"/>
    </g>
    <g id="svg_54">
     <circle id="svg_55" r="6.5" cy="338.5" cx="47.2" fill="#C03433"/>
     <path id="svg_56" d="m50.400002,340.399994l0,0l-1.900002,-1.898987l1.900002,-1.900024l0,0c0,0 0,0 0,-0.099976c0,-0.101013 0,-0.200012 0,-0.200012l-0.900002,-0.899994c-0.099998,-0.100006 -0.099998,-0.100006 -0.200001,0h-0.099998l0,0l-1.900002,1.899994l-1.899998,-1.899994l0,0c0,0 0,0 -0.100002,0c-0.099998,0 -0.200001,0 -0.200001,0l-0.899998,0.899994c-0.100002,0.100006 -0.100002,0.100006 0,0.200012v0.099976l0,0l1.899998,1.900024l-1.899998,1.898987l0,0c0,0 0,0 0,0.101013c0,0.099976 0,0.198975 0,0.198975l0.899998,0.900024c0.100002,0.099976 0.100002,0.099976 0.200001,0h0.100002l0,0l1.899998,-1.900024l1.900002,1.900024l0,0c0,0 0,0 0.099998,0c0.100002,0 0.200001,0 0.200001,0l0.900002,-0.900024c0,-0.099976 0,-0.199982 0,-0.299988c0,0.100006 0,0 0,0z" fill="#FFFFFF"/>
    </g>
    <g id="svg_57">
     <circle id="svg_58" r="6.5" cy="317.7" cx="47.2" fill="#CCCCCC"/>
     <path id="svg_59" d="m50.400002,319.700012l0,0l-1.900002,-1.898987l1.900002,-1.900024l0,0c0,0 0,0 0,-0.099976c0,-0.101013 0,-0.200012 0,-0.200012l-0.900002,-0.899994c-0.099998,-0.100006 -0.099998,-0.100006 -0.200001,0h-0.099998l0,0l-2,1.800995l-1.900002,-1.899994l0,0c0,0 0,0 -0.099998,0c-0.100002,0 -0.200001,0 -0.200001,0l-0.900002,0.899994c-0.099998,0.100006 -0.099998,0.100006 0,0.199005v0.100983l0,0l1.900002,1.89801l-1.900002,1.899994l0,0c0,0 0,0 0,0.100006c0,0.101013 0,0.200012 0,0.200012l0.900002,0.899994c0.099998,0.100006 0.099998,0.100006 0.200001,0h0.099998l0,0l1.900002,-1.899994l1.899998,1.899994l0,0c0,0 0,0 0.100002,0c0.099998,0 0.200001,0 0.200001,0l0.899998,-0.899994c0.100002,-0.000031 0.100002,-0.100006 0.100002,-0.200012l0,0z" fill="#FFFFFF"/>
    </g>
    <g id="svg_60">
     <path id="svg_61" d="m64.605003,16.9c-2.200005,0 -3.500004,0.400002 -4.700005,1.900002l1.300003,1.299999c0.799999,-1.099998 1.699997,-1.5 3.400002,-1.5c2.5,0 3.399994,1 3.399994,2.900002v1.299999h-4c-2.999996,0 -4.599998,1.5 -4.599998,3.899998c0,1.100002 0.400002,2.100002 1,2.700001c0.800003,0.900002 1.900002,1.200001 3.800003,1.200001c1.799995,0 2.799995,-0.400002 3.900002,-1.400002v1.300003h2v-9.100002c-0.100006,-2.899998 -1.900002,-4.5 -5.5,-4.5zm3.399994,8.900002c0,1.099998 -0.199997,1.899998 -0.699997,2.299999c-0.800003,0.799999 -1.900002,0.900002 -3,0.900002c-2.099998,0 -3.099998,-0.700001 -3.099998,-2.300003s1,-2.399998 3,-2.399998h3.799995v1.5l0,0zm9.700005,-7.100002c1.299995,0 2.099998,0.400002 3.099998,1.5l1.300003,-1.299999c-1.400002,-1.5 -2.5,-2 -4.400002,-2c-3.400002,0 -5.900002,2.299999 -5.900002,6.900002c0,4.599998 2.599998,6.899998 5.900002,6.899998c1.900002,0 3,-0.5 4.400002,-2l-1.300003,-1.299999c-1,1.100002 -1.800003,1.5 -3.099998,1.5c-1.300003,0 -2.400002,-0.5 -3.099998,-1.5c-0.600006,-0.899998 -0.900002,-1.899998 -0.900002,-3.599998c0,-1.700001 0.199997,-2.700001 0.900002,-3.600002c0.699997,-1 1.799995,-1.5 3.099998,-1.5zm16.799995,-1.599998h-2.399994l-6.100006,5.900002v-11.900002h-2v19.400002h2v-4.900002l2.400002,-2.400002l4.5,7.300003h2.400002l-5.599998,-8.600002l4.799995,-4.799999zm9.200005,-0.700001c-2.099998,0 -3.5,0.799999 -4.300003,1.700001c-1.299995,1.299999 -1.599998,2.900002 -1.599998,5.400002s0.300003,4.099998 1.599998,5.399998c0.900002,0.900002 2.300003,1.700001 4.300003,1.700001c2.099998,0 3.5,-0.799999 4.299995,-1.700001c1.300003,-1.299999 1.600006,-2.899998 1.600006,-5.399998s-0.300003,-4.100002 -1.600006,-5.400002c-0.799995,-0.900002 -2.199997,-1.700001 -4.299995,-1.700001zm1.699997,10.5c-0.400002,0.400002 -0.900002,0.600002 -1.599998,0.600002c-0.699997,0 -1.199997,-0.200001 -1.599998,-0.600002c-0.700005,-0.700001 -0.800003,-2 -0.800003,-3.399998s0.099998,-2.700001 0.800003,-3.400002c0.400002,-0.400002 0.900002,-0.599998 1.599998,-0.599998c0.699997,0 1.199997,0.199997 1.599998,0.599998c0.700005,0.700001 0.800003,1.900002 0.800003,3.400002s-0.099998,2.699997 -0.800003,3.399998zm13.599998,-10.399998l-2.799995,8.599998l-2.800003,-8.599998h-3.699997l5.199997,14h2.700005l5.099998,-14h-3.700005l0,0zm9.599007,-0.100002c-3.600006,0 -6.100006,2.600002 -6.100006,7.100002c0,5.699997 3.200005,7.199997 6.5,7.199997c2.5,0 3.900009,-0.799999 5.300003,-2.199997l-2.100006,-2.100002c-0.899994,0.900002 -1.600998,1.299999 -3.199997,1.299999c-2,0 -3.099998,-1.299999 -3.099998,-3.099998h8.698997v-1.599998c0.102005,-3.800003 -2.097992,-6.600002 -5.998993,-6.600002zm-2.699005,5.799999c0,-0.599998 0.099998,-1 0.300003,-1.5c0.398994,-0.799999 1.199997,-1.399998 2.300003,-1.399998c1.199997,0 2,0.599998 2.299988,1.399998c0.200012,0.5 0.300003,0.900002 0.300003,1.5h-5.199997l0,0zm13.899994,-4.299999v-1.299999h-3.398987v14h3.5v-8.400002c0,-1.799999 1.19899,-2.599998 2.299988,-2.599998c0.899002,0 1.300003,0.299999 1.800003,0.799999l2.600006,-2.599998c-1,-1 -1.899002,-1.299999 -3.300003,-1.299999c-1.501007,-0.100002 -2.800995,0.599998 -3.501007,1.399998zm7.900009,-2.799999v15.400002h3.5v-11h2.599991v-2.700001h-2.599991v-1.5c0,-0.799999 0.399002,-1.299999 1.199997,-1.299999h1.300003v-3h-2c-2.800003,0.099998 -4,2.099998 -4,4.099998zm20.399002,1.299999c-2.100006,0 -3.5,0.799999 -4.300003,1.700001c-1.300003,1.299999 -1.600006,2.900002 -1.600006,5.400002s0.300003,4.099998 1.600006,5.399998c0.899994,0.900002 2.300003,1.700001 4.300003,1.700001c2.100998,0 3.5,-0.799999 4.300995,-1.700001c1.300003,-1.299999 1.600006,-2.899998 1.600006,-5.399998s-0.300003,-4.100002 -1.600006,-5.400002c-0.800995,-0.900002 -2.199997,-1.700001 -4.300995,-1.700001zm1.700989,10.5c-0.398987,0.400002 -0.898987,0.600002 -1.599991,0.600002s-1.199997,-0.200001 -1.600998,-0.600002c-0.699005,-0.700001 -0.800003,-2 -0.800003,-3.399998s0.100998,-2.700001 0.800003,-3.400002c0.399994,-0.400002 0.899994,-0.599998 1.600998,-0.599998s1.199997,0.199997 1.599991,0.599998c0.700012,0.700001 0.800003,1.900002 0.800003,3.400002s-0.099991,2.699997 -0.800003,3.399998zm20.700012,-10.399998l-2.300003,8.599998l-2.900009,-8.599998h-2.5l-2.799988,8.699997l-2.300003,-8.599998h-3.699997l4.299988,14h2.900009l2.899002,-8.799999l2.899994,8.799999h3l4.300003,-14l-3.798996,-0.099998l0,0zm-31.600006,9.799999v-15.200001h-3.5v15.400002c0,2 1.199005,4 4.100006,4h2v-3h-1.300003c-0.900009,0.099998 -1.300003,-0.400002 -1.300003,-1.200001z" fill="#222426"/>
     <polygon id="svg_62" points="26.5,33.80000114440918 26.5,23.899999618530273 29.799999237060547,23.899999618530273 29.799999237060547,37.10000038146973 0,37.10000038146973 0,23.899999618530273 3.299999952316284,23.899999618530273 3.299999952316284,33.80000114440918 " fill="#BCBBBB"/>
     <path id="svg_63" d="m7,23.000002l16.200001,3.399998l0.699999,-3.200001l-16.2,-3.399998l-0.7,3.200001zm2.1,-7.800003l15,7l1.4,-3l-15,-7l-1.4,3zm4.2,-7.399998l12.7,10.599998l2.1,-2.5l-12.700001,-10.599998l-2.099999,2.5zm8.2,-7.800001l-2.700001,2l9.900002,13.300001l2.699999,-2l-9.9,-13.300001zm-14.9,30.500002h16.600001v-3.300003h-16.600001v3.300003l0,0z" fill="#F48024"/>
    </g>
   </g>
   <g id="OoRZWY_1_">
    <g id="svg_64">
     <path id="svg_65" d="m37.966,36.633003c0,-6.588003 0,-13.087004 0,-19.638002c-0.331001,-0.014999 -0.612,-0.034 -0.892998,-0.039001c-0.310001,-0.007 -0.621002,-0.001999 -0.962002,-0.001999c-0.036999,0.487999 -0.067001,0.889999 -0.102001,1.363998c-0.171997,-0.122997 -0.245998,-0.166 -0.307999,-0.220997c-2.936001,-2.646 -7.157,-1.450001 -8.146,2.351997c-0.559,2.150002 -0.493999,4.351002 -0.031,6.509003c0.617001,2.872997 2.749001,4.274998 5.635,3.674999c0.984001,-0.205002 1.896,-0.762001 2.903999,-1.186001c0,2.318001 0,4.743998 0,7.187002c0.681,-0.000999 1.249001,-0.000999 1.903,-0.000999zm18.645,-19.639002c0,0.411999 0,0.728001 0,1.042c0,2.450001 0.014,4.899998 -0.004002,7.349998c-0.017998,2.503002 -1.760998,3.933002 -4.223999,3.494999c-1.471001,-0.260998 -2.453999,-1.469997 -2.48,-3.193996c-0.041,-2.593002 -0.018002,-5.188004 -0.021,-7.782001c0,-0.303001 0,-0.606998 0,-0.900002c-0.728001,0 -1.321999,0 -1.959999,0c0,3.185001 -0.156002,6.329002 0.042999,9.451c0.200001,3.131001 2.662998,4.827999 5.771,4.172001c0.995998,-0.209999 1.922001,-0.755001 2.880001,-1.146999c0.017998,0.276001 0.042,0.666 0.066998,1.071999c0.642002,0 1.232002,0 1.828003,0c0,-4.552998 0,-9.052998 0,-13.558998c-0.651001,0 -1.218002,0 -1.900002,0z" fill="none"/>
     <path id="svg_66" d="m44.973,36.633003c-0.653999,0 -1.222,0 -1.901001,0c0,-2.443001 0,-4.869001 0,-7.187002c-1.007999,0.423 -1.918999,0.98 -2.903999,1.186001c-2.887001,0.600998 -5.019001,-0.802002 -5.634998,-3.675003c-0.463001,-2.157997 -0.528,-4.357998 0.030998,-6.508999c0.989002,-3.801998 5.209999,-4.998001 8.146,-2.352001c0.062,0.056 0.136002,0.098003 0.308002,0.221001c0.035,-0.473999 0.064999,-0.875999 0.101997,-1.363998c0.341,0 0.652,-0.005001 0.962002,0.001999c0.280998,0.005001 0.562,0.024002 0.892998,0.039001c-0.001999,6.551998 -0.001999,13.050999 -0.001999,19.639002zm-1.873001,-12.989004c-0.098,-0.757999 -0.136997,-1.684998 -0.348999,-2.57c-0.401001,-1.672001 -1.545998,-2.549 -3.138,-2.539997c-1.572998,0.008999 -2.865997,0.905998 -3.093998,2.572998c-0.229,1.682999 -0.256001,3.439999 -0.048,5.124001c0.224998,1.820999 1.474998,2.725998 3.131001,2.709999c1.771999,-0.016998 2.903,-0.966999 3.251999,-2.818001c0.141998,-0.758999 0.157001,-1.542 0.245998,-2.479z" clip-rule="evenodd" fill-rule="evenodd"/>
     <path id="svg_67" d="m55.610001,16.994001c0.681999,0 1.25,0 1.901001,0c0,4.506001 0,9.006001 0,13.558998c-0.596001,0 -1.186001,0 -1.828003,0c-0.024998,-0.405998 -0.049999,-0.794998 -0.066998,-1.071999c-0.958,0.391998 -1.884003,0.937 -2.880001,1.146999c-3.108002,0.654999 -5.570999,-1.041 -5.771,-4.172001c-0.199001,-3.121998 -0.042999,-6.266998 -0.042999,-9.451c0.638,0 1.231998,0 1.959999,0c0,0.293003 0,0.597 0,0.900002c0.004002,2.593998 -0.019001,5.188999 0.021,7.782001c0.027,1.724998 1.008999,2.932999 2.48,3.193996c2.463001,0.438004 4.206001,-0.991997 4.223999,-3.494999c0.018002,-2.450001 0.004002,-4.899998 0.004002,-7.349998c-0.000999,-0.315002 -0.000999,-0.630001 -0.000999,-1.042z" clip-rule="evenodd" fill-rule="evenodd"/>
     <path id="svg_68" d="m36.092999,23.643999c-0.088997,0.938 -0.104,1.720001 -0.246998,2.479c-0.350002,1.851002 -1.48,2.801003 -3.251999,2.818001c-1.656002,0.015999 -2.906002,-0.889 -3.131002,-2.709999c-0.208,-1.684002 -0.181,-3.441002 0.048,-5.124001c0.228001,-1.667 1.521,-2.563 3.094,-2.572998c1.591999,-0.009003 2.737,0.866997 3.138,2.539997c0.213001,0.885002 0.251999,1.812 0.349998,2.57z" fill="none" clip-rule="evenodd" fill-rule="evenodd"/>
    </g>
   </g>
  </g>
 </g>
</svg>