<svg width="240.00000000000003" height="500" xmlns="http://www.w3.org/2000/svg">
 <defs>
  <filter height="200%" width="200%" y="-50%" x="-50%" id="svg_71_blur">
   <feGaussianBlur stdDeviation="0" in="SourceGraphic"/>
  </filter>
 </defs>
 <g>
  <title>background</title>
  <rect fill="none" id="canvas_background" height="402" width="582" y="-1" x="-1"/>
 </g>
 <g>
  <title>Layer 1</title>
  <g id="svg_69">
   <g id="Layer_2_1_"/>
   <g id="svg_2">
    <polygon fill="#44B449" points="48,282.3999938964844 48,290 56.5,297.6000061035156 73,282.8000183105469 73,274.6000061035156 56.5,289.5 " id="svg_3"/>
   </g>
   <g id="svg_4">
    <polygon fill="#44B449" points="22.399999618530273,325.6000061035156 22.399999618530273,329.1000061035156 26.5,332.70001220703125 33.400001525878906,326.5 33.400001525878906,322.70001220703125 26.5,328.8999938964844 " id="svg_5"/>
   </g>
   <g id="svg_6">
    <polygon fill="#C0C0C0" points="8,282.3999938964844 8,290 16.600000381469727,297.6000061035156 33,282.8000183105469 33,274.6000061035156 16.600000381469727,289.5 " id="svg_7"/>
   </g>
   <polygon fill="#FE7A16" points="45,192.60000610351562 74,192.60000610351562 59.599998474121094,177.60000610351562 " id="svg_8"/>
   <polygon fill="#818185" points="5,192.60000610351562 34,192.60000610351562 19.5,177.60000610351562 " id="svg_9"/>
   <polygon fill="#FE7A16" points="59.599998474121094,244.60000610351562 74,229.60000610351562 45,229.60000610351562 " id="svg_10"/>
   <polygon fill="#FE7A16" points="6.5,323.8999938964844 0,330.8999938964844 13,330.8999938964844 " id="svg_11"/>
   <polygon fill="#818185" points="7.199999809265137,388.1000061035156 0.20000000298023224,381.6000061035156 0.20000000298023224,394.6000061035156 " id="svg_12"/>
   <polygon fill="#818185" points="54.099998474121094,475.20001220703125 47.099998474121094,468.8000183105469 47.099998474121094,481.8000183105469 " id="svg_13"/>
   <polygon fill="#818185" points="6.5,475.3000183105469 13.5,481.8000183105469 13.5,468.8000183105469 " id="svg_14"/>
   <polygon fill="#818185" points="26.799999237060547,391.6000061035156 33.20000076293945,384.6000061035156 20.200000762939453,384.6000061035156 " id="svg_15"/>
   <polygon fill="#B8B8B8" points="6.5,342.8999938964844 0,349.8999938964844 13,349.8999938964844 " id="svg_16"/>
   <polygon fill="#818185" points="19.5,244.60000610351562 34,229.60000610351562 5,229.60000610351562 " id="svg_17"/>
   <g id="svg_18">
    <polygon fill="#FFD83D" points="59.599998474121094,139.40000915527344 52.900001525878906,144.3000030517578 55.29999923706055,136.20001220703125 48.70000076293945,131.40000915527344 57,131.40000915527344 59.599998474121094,123.30000305175781 62.20000076293945,131.40000915527344 70.5,131.40000915527344 63.900001525878906,136.20001220703125 66.30000305175781,144.3000030517578 " id="svg_19"/>
    <path fill="#EAC328" d="m59.599998,125l2,6.099991l0.200001,0.699997l0.700001,0l6.300003,0l-5.300003,3.799988l-0.599998,0.400024l0.199997,0.699982l2,6.100021l-5.299999,-3.800003l-0.599998,-0.400009l-0.600002,0.400009l-5.299999,3.800003l2,-6.100021l0.200001,-0.699982l-0.599998,-0.400024l-5.300003,-3.799988l6.300003,0l0.699997,0l0.200001,-0.699997l2.799999,-6.099991m0,-3.399994l-3,9.099991l-9.599998,0l7.700001,5.700012l-3,9.099991l7.700001,-5.699997l7.699997,5.699997l-3,-9.099991l7.700005,-5.700012l-9.600002,0l-2.600002,-9.099991l0,0l-0.000002,0z" id="svg_20"/>
   </g>
   <g id="svg_21">
    <polygon fill="#C0C0C0" points="19.5,121.60000610351562 22.399999618530273,130.79998779296875 32,130.79998779296875 24.299999237060547,136.40000915527344 27.299999237060547,145.60000610351562 19.5,139.90000915527344 11.699999809265137,145.60000610351562 14.699999809265137,136.40000915527344 7,130.79998779296875 16.600000381469727,130.79998779296875 " id="svg_22"/>
   </g>
   <circle fill="#CC9966" cx="65" cy="406.6" r="3" id="svg_23"/>
   <circle fill="#C5C5C5" cx="85" cy="406.6" r="3" id="svg_24"/>
   <circle fill="#FFCC00" cx="105" cy="406.6" r="3" id="svg_25"/>
   <rect x="47.2" y="368.6" fill="#9E9E9E" width="2" height="2" id="svg_26"/>
   <rect x="50.2" y="371.6" fill="#9E9E9E" width="2" height="2" id="svg_27"/>
   <rect x="56.2" y="371.6" fill="#9E9E9E" width="2" height="2" id="svg_28"/>
   <rect x="62.2" y="371.6" fill="#9E9E9E" width="2" height="2" id="svg_29"/>
   <rect x="68.2" y="371.6" fill="#9E9E9E" width="2" height="2" id="svg_30"/>
   <rect x="53.3" y="368.6" fill="#9E9E9E" width="2" height="2" id="svg_31"/>
   <rect x="59.3" y="368.6" fill="#9E9E9E" width="2" height="2" id="svg_32"/>
   <rect x="65.3" y="368.6" fill="#9E9E9E" width="2" height="2" id="svg_33"/>
   <rect x="71.4" y="368.6" fill="#9E9E9E" width="2" height="2" id="svg_34"/>
   <g id="svg_35">
    <path fill="#C5C5C5" d="m0.2,401.600006l0,31l3.4,0c0.3,-5.5 3.7,-10.100006 8.3,-11.799988l0,-1.200012c-1.799999,-1.200012 -3,-3.299988 -3,-5.600006c0,-3.699982 3,-6.699982 6.8,-6.699982c3.8,0 6.8,3 6.8,6.699982c0,2.300018 -1.200001,4.399017 -3,5.600006l0,1.200012c4.6,1.699982 8,6.299988 8.299999,11.799988l3.400002,0l0,-31l-31.000001,0l0,0z" id="svg_36"/>
    <path fill="#FFFFFF" d="m3.7,432.600006l24.3,0c-0.299999,-5.5 -3.700001,-10.100006 -8.299999,-11.799988l0,-1.200012c1.799999,-1.200012 3,-3.299988 3,-5.600006c0,-3.699982 -3,-6.699982 -6.800001,-6.699982c-3.799999,0 -6.799999,3 -6.799999,6.699982c0,2.300018 1.2,4.399017 3,5.600006l0,1.200012c-4.6,1.699982 -8.1,6.299988 -8.4,11.799988l-0.000001,0z" id="svg_37"/>
   </g>
   <g id="svg_38">
    <rect x="60.3" y="341.6" fill="#B8B8B8" width="1.9" height="14" id="svg_39"/>
    <rect x="63.2" y="342.6" fill="#CCCCCC" width="10.1" height="8" id="svg_40"/>
   </g>
   <g id="svg_41">
    <rect x="60.3" y="321.7" fill="#D35F5F" width="1.9" height="14" id="svg_42"/>
    <rect x="63.2" y="322.7" fill="#F89393" width="10.1" height="8" id="svg_43"/>
   </g>
   <g id="svg_44">
    <rect x="80.3" y="321.7" fill="#FE6502" width="14" height="14" id="svg_45"/>
    <path fill="#FFFFFF" d="m83.5,331.100006c-0.800003,0 -1.400002,0.600006 -1.400002,1.399994c0,0.800018 0.599998,1.399017 1.400002,1.399017s1.400002,-0.600006 1.400002,-1.399017c0,-0.699982 -0.599998,-1.399994 -1.400002,-1.399994zm-1.400002,-4l0,2c1.300003,0 2.5,0.5 3.400002,1.399994c0.900002,0.899017 1.400002,2.100006 1.400002,3.399017l2,0c0.099998,-3.799011 -3,-6.799011 -6.800003,-6.799011l-0.000001,0zm0,-3.600006l0,2c4.599998,0 8.400002,3.799988 8.400002,8.398987l2,0c0,-5.698975 -4.699997,-10.398987 -10.400002,-10.398987z" id="svg_46"/>
   </g>
   <g id="svg_47">
    <polygon fill="#7A7A7A" points="22.600000381469727,348.70001220703125 21.899999618530273,351.8999938964844 25.100000381469727,351.20001220703125 " id="svg_48"/>
    <rect x="15.899032" y="348.577552" transform="matrix(0.7072,0.707,-0.707,0.7072,262.1956,86.7094) " fill="#7A7A7A" width="3.5" height="5.1" id="svg_49"/>
    <path fill="#7A7A7A" d="m29.1,342.899994c-0.4,0 -0.800001,0.101013 -1.1,0.399994l-0.700001,0.700012l2.5,2.5l0.700001,-0.700012c0.200001,-0.299988 0.4,-0.699982 0.4,-1.100983c0,-0.998993 -0.799999,-1.799011 -1.799999,-1.799011l-0.000001,0z" id="svg_50"/>
   </g>
   <g id="svg_54">
    <circle fill="#C03433" cx="47.2" cy="348.5" r="6.5" id="svg_55"/>
    <path fill="#FFFFFF" d="m50.400002,350.399994l0,0l-1.900002,-1.898987l1.900002,-1.900024l0,0c0,0 0,0 0,-0.099976c0,-0.101013 0,-0.200012 0,-0.200012l-0.900002,-0.899994c-0.099998,-0.100006 -0.099998,-0.100006 -0.200001,0l-0.099998,0l0,0l-1.900002,1.899994l-1.899998,-1.899994l0,0c0,0 0,0 -0.100002,0c-0.099998,0 -0.200001,0 -0.200001,0l-0.899998,0.899994c-0.100002,0.100006 -0.100002,0.100006 0,0.200012l0,0.099976l0,0l1.899998,1.900024l-1.899998,1.898987l0,0c0,0 0,0 0,0.101013c0,0.099976 0,0.198975 0,0.198975l0.899998,0.900024c0.100002,0.099976 0.100002,0.099976 0.200001,0l0.100002,0l0,0l1.899998,-1.900024l1.900002,1.900024l0,0c0,0 0,0 0.099998,0c0.100002,0 0.200001,0 0.200001,0l0.900002,-0.900024c0,-0.099976 0,-0.199982 0,-0.299988c0,0.100006 0,0 0,0z" id="svg_56"/>
   </g>
   <g id="svg_57">
    <circle fill="#CCCCCC" cx="47.2" cy="327.7" r="6.5" id="svg_58"/>
    <path fill="#FFFFFF" d="m50.400002,329.700012l0,0l-1.900002,-1.898987l1.900002,-1.900024l0,0c0,0 0,0 0,-0.099976c0,-0.101013 0,-0.200012 0,-0.200012l-0.900002,-0.899994c-0.099998,-0.100006 -0.099998,-0.100006 -0.200001,0l-0.099998,0l0,0l-2,1.800995l-1.900002,-1.899994l0,0c0,0 0,0 -0.099998,0c-0.100002,0 -0.200001,0 -0.200001,0l-0.900002,0.899994c-0.099998,0.100006 -0.099998,0.100006 0,0.199005l0,0.100983l0,0l1.900002,1.89801l-1.900002,1.899994l0,0c0,0 0,0 0,0.100006c0,0.101013 0,0.200012 0,0.200012l0.900002,0.899994c0.099998,0.100006 0.099998,0.100006 0.200001,0l0.099998,0l0,0l1.900002,-1.899994l1.899998,1.899994l0,0c0,0 0,0 0.100002,0c0.099998,0 0.200001,0 0.200001,0l0.899998,-0.899994c0.100002,-0.000031 0.100002,-0.100006 0.100002,-0.200012l0,0z" id="svg_59"/>
   </g>
   <g id="svg_60">
    <path fill="#222426" d="m64.605003,26.899998c-2.200005,0 -3.500004,0.400005 -4.700005,1.900005l1.300003,1.299995c0.799999,-1.099995 1.699997,-1.5 3.400002,-1.5c2.5,0 3.399994,1 3.399994,2.900002l0,1.300003l-4,0c-2.999996,0 -4.599998,1.5 -4.599998,3.899994c0,1.100006 0.400002,2.100006 1,2.700005c0.800003,0.900002 1.900002,1.199997 3.800003,1.199997c1.799995,0 2.799995,-0.400002 3.900002,-1.400002l0,1.300003l2,0l0,-9.099998c-0.100006,-2.900002 -1.900002,-4.500004 -5.5,-4.500004l-0.000001,0zm3.399994,8.900005c0,1.099995 -0.199997,1.899994 -0.699997,2.299995c-0.800003,0.799999 -1.900002,0.900005 -3,0.900005c-2.099998,0 -3.099998,-0.700001 -3.099998,-2.300007s1,-2.399994 3,-2.399994l3.799995,0l0,1.5l0,0l0,0.000001zm9.700005,-7.100006c1.299995,0 2.099998,0.400002 3.099998,1.5l1.300003,-1.299999c-1.400002,-1.499996 -2.5,-2 -4.400002,-2c-3.400002,0 -5.900002,2.299999 -5.900002,6.900005c0,4.599998 2.599998,6.899994 5.900002,6.899994c1.900002,0 3,-0.5 4.400002,-2l-1.300003,-1.299995c-1,1.099998 -1.800003,1.499996 -3.099998,1.499996c-1.300003,0 -2.400002,-0.499996 -3.099998,-1.499996c-0.600006,-0.900002 -0.900002,-1.900002 -0.900002,-3.599998c0,-1.700005 0.199997,-2.700005 0.900002,-3.600006c0.699997,-1 1.799995,-1.5 3.099998,-1.5l0,-0.000001zm16.799995,-1.599998l-2.399994,0l-6.100006,5.900005l0,-11.900005l-2,0l0,19.400002l2,0l0,-4.900002l2.400002,-2.400002l4.5,7.300003l2.400002,0l-5.599998,-8.600002l4.799995,-4.799999l-0.000001,0zm9.200005,-0.699997c-2.099998,0 -3.5,0.799995 -4.300003,1.699997c-1.299995,1.300003 -1.599998,2.900005 -1.599998,5.400002s0.300003,4.099998 1.599998,5.399998c0.900002,0.900005 2.300003,1.700001 4.300003,1.700001c2.099998,0 3.5,-0.799995 4.299995,-1.700001c1.300003,-1.299999 1.600006,-2.899994 1.600006,-5.399998s-0.300003,-4.099998 -1.600006,-5.400002c-0.799995,-0.900002 -2.199997,-1.699997 -4.299995,-1.699997zm1.699997,10.499996c-0.400002,0.400005 -0.900002,0.600002 -1.599998,0.600002c-0.699997,0 -1.199997,-0.199997 -1.599998,-0.600002c-0.700005,-0.700001 -0.800003,-2 -0.800003,-3.399998s0.099998,-2.699997 0.800003,-3.400002c0.400002,-0.400002 0.900002,-0.599998 1.599998,-0.599998c0.699997,0 1.199997,0.199997 1.599998,0.599998c0.700005,0.700005 0.800003,1.900005 0.800003,3.400002s-0.099998,2.699997 -0.800003,3.399998zm13.599998,-10.399998l-2.799995,8.599998l-2.800003,-8.599998l-3.699997,0l5.199997,14l2.700005,0l5.099998,-14l-3.700005,0l0,0zm9.599007,-0.099998c-3.600006,0 -6.100006,2.600002 -6.100006,7.099998c0,5.699997 3.200005,7.199997 6.5,7.199997c2.5,0 3.900009,-0.799999 5.300003,-2.199997l-2.100006,-2.099998c-0.899994,0.900002 -1.600998,1.299995 -3.199997,1.299995c-2,0 -3.099998,-1.299995 -3.099998,-3.099998l8.698997,0l0,-1.599995c0.102005,-3.800007 -2.097992,-6.600002 -5.998993,-6.600002zm-2.699005,5.799995c0,-0.599998 0.099998,-1 0.300003,-1.5c0.398994,-0.799999 1.199997,-1.399994 2.300003,-1.399994c1.199997,0 2,0.599995 2.299988,1.399994c0.200012,0.5 0.300003,0.900002 0.300003,1.5l-5.199997,0l0,0zm13.899994,-4.299999l0,-1.299999l-3.398987,0l0,14l3.5,0l0,-8.400002c0,-1.799995 1.19899,-2.599998 2.299988,-2.599998c0.899002,0 1.300003,0.299999 1.800003,0.800003l2.600006,-2.599998c-1,-1 -1.899002,-1.300003 -3.300003,-1.300003c-1.501007,-0.099998 -2.800995,0.599998 -3.501007,1.399998l0,-0.000001zm7.900009,-2.799999l0,15.400002l3.5,0l0,-11l2.599991,0l0,-2.699997l-2.599991,0l0,-1.5c0,-0.800003 0.399002,-1.299999 1.199997,-1.299999l1.300003,0l0,-3l-2,0c-2.800003,0.099995 -4,2.099995 -4,4.099995l0,-0.000001zm20.399002,1.300003c-2.100006,0 -3.5,0.799995 -4.300003,1.699997c-1.300003,1.300003 -1.600006,2.900005 -1.600006,5.400002s0.300003,4.099998 1.600006,5.399998c0.899994,0.900005 2.300003,1.700001 4.300003,1.700001c2.100998,0 3.5,-0.799995 4.300995,-1.700001c1.300003,-1.299999 1.600006,-2.899994 1.600006,-5.399998s-0.300003,-4.099998 -1.600006,-5.400002c-0.800995,-0.900002 -2.199997,-1.699997 -4.300995,-1.699997zm1.700989,10.499996c-0.398987,0.400005 -0.898987,0.600002 -1.599991,0.600002s-1.199997,-0.199997 -1.600998,-0.600002c-0.699005,-0.700001 -0.800003,-2 -0.800003,-3.399998s0.100998,-2.699997 0.800003,-3.400002c0.399994,-0.400002 0.899994,-0.599998 1.600998,-0.599998s1.199997,0.199997 1.599991,0.599998c0.700012,0.700005 0.800003,1.900005 0.800003,3.400002s-0.099991,2.699997 -0.800003,3.399998zm20.700012,-10.399998l-2.300003,8.599998l-2.900009,-8.599998l-2.5,0l-2.799988,8.699997l-2.300003,-8.599998l-3.699997,0l4.299988,14l2.900009,0l2.899002,-8.799995l2.899994,8.799995l3,0l4.300003,-14l-3.798996,-0.099998l0,0l0,-0.000001zm-31.600006,9.800003l0,-15.200005l-3.5,0l0,15.400002c0,2 1.199005,4 4.100006,4l2,0l0,-3l-1.300003,0c-0.900009,0.099998 -1.300003,-0.400002 -1.300003,-1.199997z" id="svg_61"/>
    <polygon fill="#BCBBBB" points="26.5,43.80000305175781 26.5,33.89999771118164 29.799999237060547,33.89999771118164 29.799999237060547,47.099998474121094 0,47.099998474121094 0,33.89999771118164 3.299999952316284,33.89999771118164 3.299999952316284,43.80000305175781 " id="svg_62"/>
    <path fill="#F48024" d="m7,33.000004l16.200001,3.399998l0.699999,-3.200005l-16.2,-3.399994l-0.7,3.200001zm2.1,-7.800007l15,7l1.4,-3l-15,-7l-1.4,3zm4.2,-7.399994l12.7,10.599998l2.1,-2.500004l-12.700001,-10.599997l-2.099999,2.500002l0,0.000001zm8.2,-7.800003l-2.700001,2l9.900002,13.300003l2.699999,-2l-9.9,-13.300003zm-14.9,30.5l16.600001,0l0,-3.300003l-16.600001,0l0,3.300003l0,0z" id="svg_63"/>
   </g>
   <g id="OoRZWY_1_">
    <g id="svg_64">
     <path fill="none" d="m37.966,46.633003c0,-6.588001 0,-13.087006 0,-19.638c-0.331001,-0.014999 -0.612,-0.034 -0.892998,-0.039001c-0.310001,-0.007 -0.621002,-0.001999 -0.962002,-0.001999c-0.036999,0.487995 -0.067001,0.889999 -0.102001,1.363998c-0.171997,-0.123001 -0.245998,-0.166 -0.307999,-0.221001c-2.936001,-2.645996 -7.157,-1.449997 -8.146,2.351997c-0.559,2.150005 -0.493999,4.351006 -0.031,6.509007c0.617001,2.872997 2.749001,4.274998 5.635,3.674999c0.984001,-0.205002 1.896,-0.762005 2.903999,-1.186005c0,2.318001 0,4.743999 0,7.187004c0.681,-0.000999 1.249001,-0.000999 1.903,-0.000999l0.000001,0zm18.645,-19.639c0,0.411995 0,0.727997 0,1.042c0,2.450001 0.014,4.899994 -0.004002,7.349998c-0.017998,2.502998 -1.760998,3.932999 -4.223999,3.494995c-1.471001,-0.260994 -2.453999,-1.469994 -2.48,-3.193993c-0.041,-2.593002 -0.018002,-5.188007 -0.021,-7.782005c0,-0.303001 0,-0.606995 0,-0.899998c-0.728001,0 -1.321999,0 -1.959999,0c0,3.185001 -0.156002,6.329002 0.042999,9.451c0.200001,3.130997 2.662998,4.827995 5.771,4.171997c0.995998,-0.209999 1.922001,-0.754997 2.880001,-1.146996c0.017998,0.276001 0.042,0.665997 0.066998,1.071999c0.642002,0 1.232002,0 1.828003,0c0,-4.552998 0,-9.053001 0,-13.558998c-0.651001,0 -1.218002,0 -1.900002,0l0.000001,0.000001z" id="svg_65"/>
     <path fill-rule="evenodd" clip-rule="evenodd" d="m44.973,46.633003c-0.653999,0 -1.222,0 -1.901001,0c0,-2.443001 0,-4.869003 0,-7.187c-1.007999,0.423 -1.918999,0.98 -2.903999,1.185997c-2.887001,0.601002 -5.019001,-0.802002 -5.634998,-3.675003c-0.463001,-2.157993 -0.528,-4.357994 0.030998,-6.508999c0.989002,-3.801994 5.209999,-4.998001 8.146,-2.351997c0.062,0.056 0.136002,0.098 0.308002,0.221001c0.035,-0.473999 0.064999,-0.875999 0.101997,-1.363998c0.341,0 0.652,-0.005001 0.962002,0.001999c0.280998,0.005001 0.562,0.024002 0.892998,0.039001c-0.001999,6.551994 -0.001999,13.050999 -0.001999,19.639l0,-0.000001zm-1.873001,-12.989002c-0.098,-0.758003 -0.136997,-1.684998 -0.348999,-2.57c-0.401001,-1.672005 -1.545998,-2.549004 -3.138,-2.539997c-1.572998,0.008999 -2.865997,0.905998 -3.093998,2.572998c-0.229,1.682995 -0.256001,3.439995 -0.048,5.124001c0.224998,1.820999 1.474998,2.725994 3.131001,2.709999c1.771999,-0.016998 2.903,-0.966999 3.251999,-2.818001c0.141998,-0.758999 0.157001,-1.542004 0.245998,-2.479l-0.000001,0z" id="svg_66"/>
     <path fill-rule="evenodd" clip-rule="evenodd" d="m55.610001,26.994003c0.681999,0 1.25,0 1.901001,0c0,4.505997 0,9.006001 0,13.558998c-0.596001,0 -1.186001,0 -1.828003,0c-0.024998,-0.406002 -0.049999,-0.794998 -0.066998,-1.071999c-0.958,0.391998 -1.884003,0.936996 -2.880001,1.146996c-3.108002,0.654999 -5.570999,-1.041 -5.771,-4.171997c-0.199001,-3.121998 -0.042999,-6.266998 -0.042999,-9.451c0.638,0 1.231998,0 1.959999,0c0,0.293003 0,0.596996 0,0.899998c0.004002,2.593998 -0.019001,5.189003 0.021,7.782005c0.027,1.724998 1.008999,2.932999 2.48,3.193993c2.463001,0.438004 4.206001,-0.991997 4.223999,-3.494995c0.018002,-2.450005 0.004002,-4.899998 0.004002,-7.349998c-0.000999,-0.315006 -0.000999,-0.630005 -0.000999,-1.042l-0.000001,-0.000001z" id="svg_67"/>
     <path fill-rule="evenodd" clip-rule="evenodd" fill="none" d="m36.092999,33.644001c-0.088997,0.937996 -0.104,1.720001 -0.246998,2.479c-0.350002,1.851002 -1.48,2.801003 -3.251999,2.818001c-1.656002,0.015995 -2.906002,-0.889 -3.131002,-2.709999c-0.208,-1.684006 -0.181,-3.441006 0.048,-5.124001c0.228001,-1.667 1.521,-2.563004 3.094,-2.572998c1.591999,-0.009007 2.737,0.866997 3.138,2.539997c0.213001,0.885002 0.251999,1.811996 0.349998,2.57l0.000001,0z" id="svg_68"/>
    </g>
   </g>
   <g stroke="null" id="svg_1">
    <path stroke="null" opacity="0.8" id="svg_1" d="m117.502404,461.196962l-3.038391,-2.982842c0.776993,-1.149874 1.229273,-2.516061 1.229273,-3.996097c0,-3.973328 -3.293523,-7.218023 -7.352442,-7.218023s-7.340844,3.244695 -7.340844,7.218023s3.293523,7.218022 7.352441,7.218022c1.785925,0 3.421089,-0.626169 4.685152,-1.662194l2.957213,2.903148c0.208744,0.204928 0.475473,0.307392 0.753799,0.307392c0.266729,0 0.545055,-0.102464 0.753799,-0.307392c0.417489,-0.409857 0.417489,-1.07018 0,-1.480037zm-9.149963,-1.332032c-3.177553,0 -5.752067,-2.538831 -5.752067,-5.646907c0,-3.119461 2.586111,-5.646908 5.752067,-5.646908c3.177554,0 5.752068,2.538832 5.752068,5.646908c0,3.108076 -2.586111,5.646907 -5.752068,5.646907z" class="st0"/>
    <circle stroke="null" opacity="0.41" id="svg_70" r="1.803302" cy="451.816104" cx="108.438723" class="st0"/>
    <path stroke="null" filter="url(#svg_71_blur)" opacity="0.44" id="svg_71" d="m109.812054,453.446797c-0.345271,0.338958 -0.920722,0.464498 -1.355507,0.464498c-0.434785,0 -1.010236,-0.12554 -1.355507,-0.464498c-1.202053,0.451944 -2.109987,1.883102 -2.352956,3.151057c-0.076727,0.37662 0.204605,0.690471 0.575451,0.816011c0.75448,0.225972 1.956534,0.364066 3.120224,0.364066c1.534536,0 2.506409,-0.138094 3.196951,-0.37662c0.332483,-0.112986 0.562663,-0.37662 0.511512,-0.715579c-0.217393,-1.305617 -1.125327,-2.774437 -2.340168,-3.238935z" class="st0"/>
   </g>
  </g>
 </g>
</svg>