<?xml version="1.0" encoding="utf-8"?>
<!-- Generator: Adobe Illustrator 16.2.1, SVG Export Plug-In . SVG Version: 6.00 Build 0)  -->
<!DOCTYPE svg PUBLIC "-//W3C//DTD SVG 1.1//EN" "http://www.w3.org/Graphics/SVG/1.1/DTD/svg11.dtd">
<svg version="1.1" id="Layer_1" xmlns="http://www.w3.org/2000/svg" xmlns:xlink="http://www.w3.org/1999/xlink" x="0px" y="0px"
	 width="240px" height="500px" viewBox="0 0 240 500" enable-background="new 0 0 240 500" xml:space="preserve">
<g id="Layer_2_1_">
</g>
<g>
	<g>
		<polygon fill="#44B449" points="48,294.8 48,302.4 56.5,310 73,295.2 73,287 56.5,301.9 		"/>
	</g>
	<g>
		<polygon fill="#44B449" points="22.4,338 22.4,341.5 26.5,345.1 33.4,338.9 33.4,335.1 26.5,341.3 		"/>
	</g>
	<g>
		<polygon fill="#C0C0C0" points="8,294.8 8,302.4 16.6,310 33,295.2 33,287 16.6,301.9 		"/>
	</g>
	<polygon fill="#FE7A16" points="45,205 74,205 59.6,190 	"/>
	<polygon fill="#818185" points="5,205 34,205 19.5,190 	"/>
	<polygon fill="#FE7A16" points="59.6,257 74,242 45,242 	"/>
	<polygon fill="#FE7A16" points="6.5,336.3 0,343.3 13,343.3 	"/>
	<polygon fill="#818185" points="7.2,400.5 0.2,394 0.2,407 	"/>
	<polygon fill="#818185" points="54.1,487.6 47.1,481.2 47.1,494.2 	"/>
	<polygon fill="#818185" points="6.5,487.7 13.5,494.2 13.5,481.2 	"/>
	<polygon fill="#818185" points="26.8,404 33.2,397 20.2,397 	"/>
	<polygon fill="#B8B8B8" points="6.5,355.3 0,362.3 13,362.3 	"/>
	<polygon fill="#818185" points="19.5,257 34,242 5,242 	"/>
	<g>
		<polygon fill="#FFD83D" points="59.6,151.8 52.9,156.7 55.3,148.6 48.7,143.8 57,143.8 59.6,135.7 62.2,143.8 70.5,143.8 
			63.9,148.6 66.3,156.7 		"/>
		<path fill="#EAC328" d="M59.6,137.4l2,6.1l0.2,0.7h0.7h6.3l-5.3,3.8l-0.6,0.4l0.2,0.7l2,6.1l-5.3-3.8l-0.6-0.4l-0.6,0.4l-5.3,3.8
			l2-6.1l0.2-0.7l-0.6-0.4l-5.3-3.8h6.3h0.7l0.2-0.7L59.6,137.4 M59.6,134l-3,9.1H47l7.7,5.7l-3,9.1l7.7-5.7l7.7,5.7l-3-9.1l7.7-5.7
			h-9.6L59.6,134L59.6,134z"/>
	</g>
	<g>
		<polygon fill="#C0C0C0" points="19.5,134 22.4,143.2 32,143.2 24.3,148.8 27.3,158 19.5,152.3 11.7,158 14.7,148.8 7,143.2 
			16.6,143.2 		"/>
	</g>
	<circle fill="#CC9966" cx="65" cy="419" r="3"/>
	<circle fill="#C5C5C5" cx="85" cy="419" r="3"/>
	<circle fill="#FFCC00" cx="105" cy="419" r="3"/>
	<rect x="47.2" y="381" fill="#9E9E9E" width="2" height="2"/>
	<rect x="50.2" y="384" fill="#9E9E9E" width="2" height="2"/>
	<rect x="56.2" y="384" fill="#9E9E9E" width="2" height="2"/>
	<rect x="62.2" y="384" fill="#9E9E9E" width="2" height="2"/>
	<rect x="68.2" y="384" fill="#9E9E9E" width="2" height="2"/>
	<rect x="53.3" y="381" fill="#9E9E9E" width="2" height="2"/>
	<rect x="59.3" y="381" fill="#9E9E9E" width="2" height="2"/>
	<rect x="65.3" y="381" fill="#9E9E9E" width="2" height="2"/>
	<rect x="71.4" y="381" fill="#9E9E9E" width="2" height="2"/>
	<g>
		<path fill="#C5C5C5" d="M0.2,414v31h3.4c0.3-5.5,3.7-10.1,8.3-11.8V432c-1.8-1.2-3-3.3-3-5.6c0-3.7,3-6.7,6.8-6.7
			c3.8,0,6.8,3,6.8,6.7c0,2.3-1.2,4.399-3,5.6v1.2c4.6,1.7,8,6.3,8.3,11.8h3.4v-31H0.2z"/>
		<path fill="#FFFFFF" d="M3.7,445H28c-0.3-5.5-3.7-10.1-8.3-11.8V432c1.8-1.2,3-3.3,3-5.6c0-3.7-3-6.7-6.8-6.7
			c-3.8,0-6.8,3-6.8,6.7c0,2.3,1.2,4.399,3,5.6v1.2C7.5,434.9,4,439.5,3.7,445z"/>
	</g>
	<g>
		<rect x="60.3" y="354" fill="#B8B8B8" width="1.9" height="14"/>
		<rect x="63.2" y="355" fill="#CCCCCC" width="10.1" height="8"/>
	</g>
	<g>
		<rect x="60.3" y="334.1" fill="#D35F5F" width="1.9" height="14"/>
		<rect x="63.2" y="335.1" fill="#F89393" width="10.1" height="8"/>
	</g>
	<g>
		<rect x="80.3" y="334.1" fill="#FE6502" width="14" height="14"/>
		<path fill="#FFFFFF" d="M83.5,343.5c-0.8,0-1.4,0.6-1.4,1.4c0,0.8,0.6,1.399,1.4,1.399s1.4-0.6,1.4-1.399
			C84.9,344.2,84.3,343.5,83.5,343.5z M82.1,339.5v2c1.3,0,2.5,0.5,3.4,1.4c0.9,0.899,1.4,2.1,1.4,3.399h2
			C89,342.5,85.9,339.5,82.1,339.5z M82.1,335.9v2c4.6,0,8.4,3.8,8.4,8.399h2C92.5,340.6,87.8,335.9,82.1,335.9z"/>
	</g>
	<g>
		<polygon fill="#7A7A7A" points="22.6,361.1 21.9,364.3 25.1,363.6 		"/>
		
			<rect x="24.666" y="357.347" transform="matrix(0.7072 0.707 -0.707 0.7072 262.1956 86.7094)" fill="#7A7A7A" width="3.5" height="5.1"/>
		<path fill="#7A7A7A" d="M29.1,355.3c-0.4,0-0.8,0.101-1.1,0.4l-0.7,0.7l2.5,2.5l0.7-0.7c0.2-0.3,0.4-0.7,0.4-1.101
			C30.9,356.1,30.1,355.3,29.1,355.3z"/>
	</g>
	<g>
		<circle fill="#C03433" cx="107" cy="465.8" r="6.5"/>
		<path fill="#FFFFFF" d="M110.2,467.7L110.2,467.7l-1.9-1.9l1.9-1.899l0,0c0,0,0,0,0-0.101c0-0.1,0-0.2,0-0.2l-0.9-0.899
			c-0.1-0.101-0.1-0.101-0.2,0H109l0,0l-1.9,1.899l-1.9-1.899l0,0c0,0,0,0-0.1,0s-0.2,0-0.2,0L104,463.6c-0.1,0.101-0.1,0.101,0,0.2
			v0.101l0,0l1.9,1.899l-1.9,1.9l0,0c0,0,0,0,0,0.1c0,0.101,0,0.2,0,0.2l0.9,0.9c0.1,0.1,0.1,0.1,0.2,0h0.1l0,0l1.9-1.9l1.9,1.9l0,0
			c0,0,0,0,0.1,0s0.2,0,0.2,0l0.9-0.9C110.2,468,110.2,467.9,110.2,467.7C110.2,467.8,110.2,467.8,110.2,467.7z"/>
	</g>
	<g>
		<circle fill="#C03433" cx="47.2" cy="360.9" r="6.5"/>
		<path fill="#FFFFFF" d="M50.4,362.8L50.4,362.8l-1.9-1.899l1.9-1.9l0,0c0,0,0,0,0-0.1c0-0.101,0-0.2,0-0.2l-0.9-0.9
			c-0.1-0.1-0.1-0.1-0.2,0h-0.1l0,0l-1.9,1.9l-1.9-1.9l0,0c0,0,0,0-0.1,0c-0.1,0-0.2,0-0.2,0l-0.9,0.9c-0.1,0.1-0.1,0.1,0,0.2v0.1
			l0,0l1.9,1.9l-1.9,1.899l0,0c0,0,0,0,0,0.101c0,0.1,0,0.199,0,0.199l0.9,0.9c0.1,0.1,0.1,0.1,0.2,0h0.1l0,0l1.9-1.9l1.9,1.9l0,0
			c0,0,0,0,0.1,0c0.1,0,0.2,0,0.2,0l0.9-0.9C50.4,363,50.4,362.9,50.4,362.8C50.4,362.9,50.4,362.8,50.4,362.8z"/>
	</g>
	<g>
		<circle fill="#CCCCCC" cx="47.2" cy="340.1" r="6.5"/>
		<path fill="#FFFFFF" d="M50.4,342.1L50.4,342.1l-1.9-1.899l1.9-1.9l0,0c0,0,0,0,0-0.1c0-0.101,0-0.2,0-0.2l-0.9-0.9
			c-0.1-0.1-0.1-0.1-0.2,0h-0.1l0,0l-2,1.801l-1.9-1.9l0,0c0,0,0,0-0.1,0c-0.1,0-0.2,0-0.2,0l-0.9,0.9c-0.1,0.1-0.1,0.1,0,0.199
			v0.101l0,0L46,340.1l-1.9,1.9l0,0c0,0,0,0,0,0.1c0,0.101,0,0.2,0,0.2l0.9,0.9c0.1,0.1,0.1,0.1,0.2,0h0.1l0,0l1.9-1.9l1.9,1.9l0,0
			c0,0,0,0,0.1,0c0.1,0,0.2,0,0.2,0l0.9-0.9C50.4,342.3,50.4,342.2,50.4,342.1L50.4,342.1z"/>
	</g>
	<g>
		<path fill="#222426" d="M64.605,39.3c-2.2,0-3.5,0.4-4.7,1.9l1.3,1.3c0.8-1.1,1.7-1.5,3.4-1.5c2.5,0,3.4,1,3.4,2.9v1.3h-4
			c-3,0-4.6,1.5-4.6,3.9c0,1.1,0.4,2.1,1,2.7c0.8,0.9,1.9,1.2,3.8,1.2c1.8,0,2.8-0.4,3.9-1.4v1.3h2v-9.1
			C70.005,40.9,68.205,39.3,64.605,39.3z M68.005,48.2c0,1.1-0.2,1.9-0.7,2.3c-0.8,0.8-1.9,0.9-3,0.9c-2.1,0-3.1-0.7-3.1-2.3
			s1-2.4,3-2.4h3.8V48.2z M77.705,41.1c1.3,0,2.1,0.4,3.1,1.5l1.3-1.3c-1.4-1.5-2.5-2-4.4-2c-3.4,0-5.9,2.3-5.9,6.9
			c0,4.6,2.6,6.9,5.9,6.9c1.9,0,3-0.5,4.4-2l-1.3-1.3c-1,1.1-1.8,1.5-3.1,1.5c-1.3,0-2.4-0.5-3.1-1.5c-0.6-0.9-0.9-1.9-0.9-3.6
			c0-1.7,0.2-2.7,0.9-3.6C75.305,41.6,76.405,41.1,77.705,41.1z M94.505,39.5h-2.4l-6.1,5.9V33.5h-2v19.4h2V48l2.4-2.4l4.5,7.3h2.4
			l-5.6-8.6L94.505,39.5z M103.705,38.8c-2.1,0-3.5,0.8-4.3,1.7c-1.3,1.3-1.6,2.9-1.6,5.4s0.3,4.1,1.6,5.4c0.9,0.9,2.3,1.7,4.3,1.7
			c2.1,0,3.5-0.8,4.3-1.7c1.3-1.3,1.6-2.9,1.6-5.4s-0.3-4.1-1.6-5.4C107.205,39.6,105.805,38.8,103.705,38.8z M105.405,49.3
			c-0.4,0.4-0.9,0.6-1.6,0.6c-0.7,0-1.2-0.2-1.6-0.6c-0.7-0.7-0.8-2-0.8-3.4s0.1-2.7,0.8-3.4c0.4-0.4,0.9-0.6,1.6-0.6
			c0.7,0,1.2,0.2,1.6,0.6c0.7,0.7,0.8,1.9,0.8,3.4S106.105,48.6,105.405,49.3z M119.005,38.9l-2.8,8.6l-2.8-8.6h-3.7l5.2,14h2.7
			l5.1-14H119.005z M128.604,38.8c-3.6,0-6.1,2.6-6.1,7.1c0,5.7,3.2,7.2,6.5,7.2c2.5,0,3.9-0.8,5.3-2.2l-2.1-2.1
			c-0.9,0.9-1.601,1.3-3.2,1.3c-2,0-3.1-1.3-3.1-3.1h8.699v-1.6C134.705,41.6,132.505,38.8,128.604,38.8z M125.905,44.6
			c0-0.6,0.1-1,0.3-1.5c0.399-0.8,1.2-1.4,2.3-1.4c1.2,0,2,0.6,2.3,1.4c0.2,0.5,0.3,0.9,0.3,1.5H125.905z M139.805,40.3V39h-3.399
			v14h3.5v-8.4c0-1.8,1.199-2.6,2.3-2.6c0.899,0,1.3,0.3,1.8,0.8l2.6-2.6c-1-1-1.899-1.3-3.3-1.3
			C141.805,38.8,140.505,39.5,139.805,40.3z M147.705,37.5v15.4h3.5v-11h2.6v-2.7h-2.6v-1.5c0-0.8,0.399-1.3,1.2-1.3h1.3v-3h-2
			C148.905,33.5,147.705,35.5,147.705,37.5z M168.104,38.8c-2.1,0-3.5,0.8-4.3,1.7c-1.3,1.3-1.6,2.9-1.6,5.4s0.3,4.1,1.6,5.4
			c0.9,0.9,2.3,1.7,4.3,1.7c2.101,0,3.5-0.8,4.301-1.7c1.3-1.3,1.6-2.9,1.6-5.4s-0.3-4.1-1.6-5.4
			C171.604,39.6,170.205,38.8,168.104,38.8z M169.805,49.3c-0.399,0.4-0.899,0.6-1.6,0.6s-1.2-0.2-1.601-0.6
			c-0.699-0.7-0.8-2-0.8-3.4s0.101-2.7,0.8-3.4c0.4-0.4,0.9-0.6,1.601-0.6s1.2,0.2,1.6,0.6c0.7,0.7,0.8,1.9,0.8,3.4
			S170.505,48.6,169.805,49.3z M190.505,38.9l-2.3,8.6l-2.9-8.6h-2.5l-2.8,8.7l-2.3-8.6h-3.7l4.3,14h2.9l2.899-8.8l2.9,8.8h3l4.3-14
			L190.505,38.9L190.505,38.9z M158.905,48.7V33.5h-3.5v15.4c0,2,1.199,4,4.1,4h2v-3h-1.3C159.305,50,158.905,49.5,158.905,48.7z"/>
		<polygon fill="#BCBBBB" points="26.5,56.2 26.5,46.3 29.8,46.3 29.8,59.5 0,59.5 0,46.3 3.3,46.3 3.3,56.2 		"/>
		<path fill="#F48024" d="M7,45.4l16.2,3.4l0.7-3.2L7.7,42.2L7,45.4z M9.1,37.6l15,7l1.4-3l-15-7L9.1,37.6z M13.3,30.2L26,40.8
			l2.1-2.5L15.4,27.7L13.3,30.2z M21.5,22.4l-2.7,2l9.9,13.3l2.7-2L21.5,22.4z M6.6,52.9h16.6v-3.3H6.6V52.9z"/>
	</g>
</g>
<g id="OoRZWY_1_">
	<g>
		<path fill="none" d="M37.966,59.033c0-6.588,0-13.087,0-19.638c-0.331-0.015-0.612-0.034-0.893-0.039
			c-0.31-0.007-0.621-0.002-0.962-0.002c-0.037,0.488-0.067,0.89-0.102,1.364c-0.172-0.123-0.246-0.166-0.308-0.221
			c-2.936-2.646-7.157-1.45-8.146,2.352c-0.559,2.15-0.494,4.351-0.031,6.509c0.617,2.873,2.749,4.275,5.635,3.675
			c0.984-0.205,1.896-0.762,2.904-1.186c0,2.318,0,4.744,0,7.187C36.744,59.033,37.312,59.033,37.966,59.033z M56.611,39.394
			c0,0.412,0,0.728,0,1.042c0,2.45,0.014,4.9-0.004,7.35c-0.018,2.503-1.761,3.933-4.224,3.495c-1.471-0.261-2.454-1.47-2.48-3.194
			c-0.041-2.593-0.018-5.188-0.021-7.782c0-0.303,0-0.607,0-0.9c-0.728,0-1.322,0-1.96,0c0,3.185-0.156,6.329,0.043,9.451
			c0.2,3.131,2.663,4.828,5.771,4.172c0.996-0.21,1.922-0.755,2.88-1.147c0.018,0.276,0.042,0.666,0.067,1.072
			c0.642,0,1.232,0,1.828,0c0-4.553,0-9.053,0-13.559C57.86,39.394,57.293,39.394,56.611,39.394z"/>
		<path fill-rule="evenodd" clip-rule="evenodd" d="M44.973,59.033c-0.654,0-1.222,0-1.901,0c0-2.443,0-4.869,0-7.187
			c-1.008,0.423-1.919,0.98-2.904,1.186c-2.887,0.601-5.019-0.802-5.635-3.675c-0.463-2.158-0.528-4.358,0.031-6.509
			c0.989-3.802,5.21-4.998,8.146-2.352c0.062,0.056,0.136,0.098,0.308,0.221c0.035-0.474,0.065-0.876,0.102-1.364
			c0.341,0,0.652-0.005,0.962,0.002c0.281,0.005,0.562,0.024,0.893,0.039C44.973,45.946,44.973,52.445,44.973,59.033z M43.1,46.044
			c-0.098-0.758-0.137-1.685-0.349-2.57c-0.401-1.672-1.546-2.549-3.138-2.54c-1.573,0.009-2.866,0.906-3.094,2.573
			c-0.229,1.683-0.256,3.44-0.048,5.124c0.225,1.821,1.475,2.726,3.131,2.71c1.772-0.017,2.903-0.967,3.252-2.818
			C42.996,47.764,43.011,46.981,43.1,46.044z"/>
		<path fill-rule="evenodd" clip-rule="evenodd" d="M55.61,39.394c0.682,0,1.25,0,1.901,0c0,4.506,0,9.006,0,13.559
			c-0.596,0-1.186,0-1.828,0c-0.025-0.406-0.05-0.795-0.067-1.072c-0.958,0.392-1.884,0.937-2.88,1.147
			c-3.108,0.655-5.571-1.041-5.771-4.172c-0.199-3.122-0.043-6.267-0.043-9.451c0.638,0,1.232,0,1.96,0c0,0.293,0,0.597,0,0.9
			c0.004,2.594-0.019,5.189,0.021,7.782c0.027,1.725,1.009,2.933,2.48,3.194c2.463,0.438,4.206-0.992,4.224-3.495
			c0.018-2.45,0.004-4.9,0.004-7.35C55.61,40.121,55.61,39.806,55.61,39.394z"/>
		<path fill-rule="evenodd" clip-rule="evenodd" fill="none" d="M36.093,46.044c-0.089,0.938-0.104,1.72-0.247,2.479
			c-0.35,1.851-1.48,2.801-3.252,2.818c-1.656,0.016-2.906-0.889-3.131-2.71c-0.208-1.684-0.181-3.441,0.048-5.124
			c0.228-1.667,1.521-2.563,3.094-2.573c1.592-0.009,2.737,0.867,3.138,2.54C35.956,44.359,35.995,45.286,36.093,46.044z"/>
	</g>
</g>
</svg>
