<svg xmlns="http://www.w3.org/2000/svg" xmlns:xlink="http://www.w3.org/1999/xlink" version="1.1" x="0px" y="0px" viewBox="0 0 150 187.5" style="enable-background:new 0 0 150 150;" xml:space="preserve"><style type="text/css">
	.st0{fill:#030000;}
</style><g><path class="st0" d="M144.8,129.5l-26.2-26.2c6.7-10.1,10.6-22.1,10.6-35.1c0-34.9-28.4-63.4-63.4-63.4S2.5,33.3,2.5,68.2   s28.4,63.4,63.4,63.4c15.4,0,29.5-5.5,40.4-14.6l25.5,25.5c1.8,1.8,4.1,2.7,6.5,2.7c2.3,0,4.7-0.9,6.5-2.7   C148.4,138.9,148.4,133.1,144.8,129.5z M65.9,117.8c-27.4,0-49.6-22.3-49.6-49.6c0-27.4,22.3-49.6,49.6-49.6   c27.4,0,49.6,22.3,49.6,49.6C115.5,95.5,93.2,117.8,65.9,117.8z"/><circle class="st0" cx="65.9" cy="48.1" r="14.6"/><path class="st0" d="M76.5,63.4c-2.7,2.7-7.2,3.7-10.6,3.7c-3.4,0-7.9-1-10.6-3.7C45.9,67,38.8,78.4,36.9,88.5   c-0.6,3,1.6,5.5,4.5,6.5c5.9,1.8,15.3,2.9,24.4,2.9c12,0,19.6-1.1,25-3c2.6-0.9,4.4-3,4-5.7C93.1,78.8,86,67.1,76.5,63.4z"/></g><text x="0" y="165" fill="#000000" font-size="5px" font-weight="bold" font-family="'Helvetica Neue', Helvetica, Arial-Unicode, Arial, Sans-serif">Created by parkjisun</text><text x="0" y="170" fill="#000000" font-size="5px" font-weight="bold" font-family="'Helvetica Neue', Helvetica, Arial-Unicode, Arial, Sans-serif">from the Noun Project</text></svg>